<svg width="152" height="164" viewBox="0 0 152 164" fill="none" xmlns="http://www.w3.org/2000/svg">
<g clip-path="url(#clip0_1_659)">
<path d="M39.227 40.4826C39.3548 40.4336 39.5239 40.374 39.6599 40.3649C39.8712 40.3505 40.0502 40.4676 40.2026 40.6036C40.4442 40.8195 40.4758 41.0692 40.4792 41.3761C40.3726 41.6366 40.3166 41.722 40.0861 41.8824C39.9982 41.9208 39.9853 41.9298 39.8819 41.9568C39.7009 42.004 39.4749 42.0064 39.3154 41.8997C39.1051 41.7588 38.9499 41.4574 38.9262 41.2069C38.8944 40.869 39.0168 40.7148 39.227 40.4826Z" fill="#EFE9E3"/>
<path d="M59.6164 111.295C60.7479 111.033 61.896 111.004 62.974 111.505C64.1201 112.037 65.0811 113.028 65.4985 114.233L65.5424 114.364L65.6155 114.572C66.0023 115.801 65.9134 117.154 65.3239 118.303C64.7177 119.484 63.705 120.322 62.4513 120.726C61.8788 120.887 61.27 121.002 60.6722 120.979C59.3873 120.93 58.1276 120.214 57.2952 119.259C56.5153 118.364 55.9553 117.061 56.0544 115.857L56.068 115.716C56.1233 115.061 56.2884 114.424 56.583 113.834C57.234 112.531 58.2496 111.749 59.6164 111.295Z" fill="#272727"/>
<path d="M60.3728 114.011C60.7 113.929 61.0133 113.897 61.3496 113.949C61.94 114.04 62.508 114.429 62.8273 114.931C63.1208 115.393 63.2204 116.008 63.0648 116.538C62.8686 117.206 62.3789 117.636 61.8012 117.97C61.3739 118.085 60.9007 118.177 60.4657 118.057C59.893 117.898 59.4554 117.565 59.171 117.039C58.8994 116.537 58.8375 115.828 59.0218 115.289C59.2431 114.642 59.7822 114.272 60.3728 114.011Z" fill="#EFE9E3"/>
<path d="M43.3698 114.007C44.4306 113.773 45.5736 113.908 46.5447 114.398C47.7808 115.021 48.7452 116.071 49.1539 117.408C49.5313 118.642 49.324 120.062 48.7248 121.185C48.0404 122.468 46.9801 123.241 45.6017 123.668C44.496 123.925 43.2598 123.85 42.2402 123.317C41.0691 122.705 40.1547 121.594 39.7728 120.327C39.3415 118.896 39.5059 117.467 40.2449 116.162C40.908 114.992 42.1131 114.343 43.3698 114.007Z" fill="#272727"/>
<path d="M43.5855 116.811C43.9886 116.695 44.3738 116.629 44.7899 116.729C45.4321 116.882 45.9696 117.302 46.2875 117.88C46.557 118.37 46.6135 118.898 46.4398 119.429C46.2297 120.07 45.8124 120.496 45.2281 120.811C44.8243 120.948 44.4553 121.002 44.0304 120.939C43.5011 120.861 42.9872 120.503 42.6872 120.062C42.363 119.586 42.2238 118.978 42.3532 118.413C42.5232 117.67 42.9715 117.211 43.5855 116.811Z" fill="#EFE9E3"/>
<path d="M136.836 97.4444C137.349 97.3197 137.906 97.311 138.429 97.3588C139.77 97.4813 141.088 98.2175 141.927 99.2751C142.686 100.233 143.213 101.716 143.044 102.949L143.023 103.089C142.933 103.703 142.797 104.316 142.515 104.873C141.827 106.234 140.699 106.99 139.286 107.44C138.105 107.659 136.956 107.64 135.858 107.104C134.752 106.564 133.652 105.441 133.26 104.254C132.808 102.882 132.738 101.412 133.434 100.108C134.193 98.6864 135.317 97.8946 136.836 97.4444Z" fill="#272727"/>
<path d="M137.127 100.642C137.529 100.545 137.944 100.442 138.356 100.546C138.899 100.682 139.373 101.049 139.647 101.536C139.928 102.034 140.022 102.68 139.846 103.229C139.647 103.852 139.246 104.208 138.687 104.508C138.36 104.603 138.015 104.665 137.675 104.614C137.099 104.529 136.529 104.147 136.198 103.67C135.87 103.197 135.772 102.843 135.89 102.278C136.049 101.513 136.493 101.044 137.127 100.642Z" fill="#EFE9E3"/>
<path d="M155.008 94.1633C156.197 93.905 157.533 94.1258 158.605 94.6948C159.822 95.3415 160.69 96.5412 161.077 97.8529C161.464 99.1633 161.265 100.505 160.62 101.696C159.901 103.023 158.785 103.783 157.356 104.198C156.17 104.507 154.689 104.278 153.625 103.673C152.503 103.034 151.591 101.973 151.248 100.713C150.869 99.319 151.03 97.8346 151.743 96.5771C152.454 95.325 153.641 94.5327 155.008 94.1633Z" fill="#272727"/>
<path d="M122.657 1.79772L122.689 1.50274L122.806 1.54833L122.818 1.61433C122.893 1.97911 123.075 2.25767 123.232 2.58752L123.875 4.1064C123.947 4.28169 124.099 4.56198 124.102 4.74333C125.761 3.40507 127.235 1.815 129.015 0.629858C128.672 1.38259 128.201 2.09645 127.77 2.80156L125.356 6.59522C126.337 8.77441 126.948 11.1679 127.557 13.4744L136.624 8.60878C136.297 9.20525 135.704 9.79326 135.279 10.3332C133.849 12.151 132.463 14.0166 130.839 15.6695C130.536 15.9783 128.456 17.7349 128.428 17.8439C128.411 17.9105 128.472 18.1851 128.482 18.268L128.607 19.4706C128.821 21.9139 128.32 24.2227 127.137 26.3602C126.747 26.1265 126.412 25.7466 126.1 25.4185C124.785 24.0391 123.891 22.3148 123.365 20.4913L123.048 19.3012C123.019 19.1893 122.969 18.8688 122.903 18.7811C122.863 18.7281 122.451 18.5895 122.372 18.5552C121.825 18.317 121.299 18.0434 120.774 17.7609C119.034 16.8251 117.378 15.7293 115.776 14.5752L115.917 13.5906C118.069 13.6972 120.278 14.1777 122.394 14.5724L122.176 7.22708C121.753 6.78198 121.131 6.40358 120.637 6.03299C119.214 4.96549 117.661 3.93358 116.394 2.6842C117.277 2.81584 118.269 3.29919 119.106 3.62484C120.218 4.0571 121.349 4.44911 122.431 4.95163L122.657 1.79772Z" fill="#AB8264"/>
<path d="M122.657 1.7977L122.689 1.50271L122.806 1.5483L122.818 1.6143C122.893 1.97908 123.075 2.25764 123.232 2.5875L123.875 4.10637C123.947 4.28166 124.099 4.56195 124.102 4.74331C124.145 5.1895 124.415 5.70054 124.568 6.12765L125.603 9.0755L127.01 13.8809C127.588 16.1468 128.04 18.4251 128 20.7735C127.968 22.6309 127.633 24.3897 127.125 26.1685C126.067 24.8267 125.058 23.2601 124.447 21.6569C123.026 17.9224 122.896 13.4558 122.81 9.49785L122.759 1.8352L122.657 1.7977Z" fill="#AB8264"/>
<path d="M48.3059 90.7276C47.0095 87.7237 46.1374 84.4666 45.5443 81.2549C43.8099 71.8657 44.5356 62.2127 48.0362 53.3029C49.9081 48.538 52.5331 44.1823 55.7384 40.2028C57.1879 38.4032 58.7235 36.659 60.4192 35.0874C64.4503 31.3517 69.1757 28.3208 74.2076 26.1424C86.0286 21.0246 99.4534 21.0794 111.381 25.8439C123.662 30.7497 133.398 40.6909 138.62 52.8296C140.475 57.1392 141.706 61.7534 142.232 66.4161C142.48 68.6204 142.519 70.8299 142.581 73.0442C143.353 73.1706 144.012 73.374 144.489 74.0522C144.89 74.6231 144.939 75.2836 145.059 75.9516L145.498 78.4375L149.936 77.6641C150.964 77.482 152.221 77.116 153.253 77.2114L153.389 77.2227C154.437 77.3212 155.312 77.8548 156.148 78.4569C157.474 79.4115 158.632 80.5443 159.662 81.8122C162.042 84.744 163.306 88.1043 163.958 91.7929C163.998 92.018 164.131 93.1416 164.282 93.1832C164.94 93.3636 165.508 93.7444 165.848 94.3538C166.037 94.693 166.114 95.1875 165.988 95.5584C165.649 96.5632 164.503 97.0811 163.599 97.4861L162.162 98.1011C161.605 96.2867 160.667 94.7639 158.961 93.8427C157.603 93.1098 155.809 92.9107 154.34 93.3905C152.788 93.8972 151.452 94.9832 150.737 96.465C150.183 97.6135 150.094 98.8682 150.087 100.122L143.89 101.258C143.344 99.4967 142.436 97.9512 140.757 97.0546C139.384 96.3207 137.62 96.1182 136.134 96.6095C134.529 97.1397 133.32 98.2205 132.594 99.7535C132.03 100.946 131.936 101.951 132.005 103.253L129.715 103.697C129.439 103.745 128.939 103.76 128.696 103.871C128.544 103.941 128.181 104.516 128.031 104.686L126.062 106.788C124.462 108.419 122.648 109.914 120.798 111.254C109.72 119.281 94.5642 121.714 81.4211 118.191C77.2353 117.07 73.3362 115.288 69.5124 113.272L69.4943 113.393C69.4391 113.752 69.3838 114.111 69.0741 114.346C68.5455 114.747 67.2559 114.709 66.5748 114.877C66.3114 113.405 65.5234 112.026 64.2799 111.157C63.0274 110.282 61.4418 109.968 59.9478 110.263C58.3091 110.587 57.0751 111.365 56.1519 112.755C55.3932 113.896 55.1424 115.25 55.2156 116.6C55.2242 116.758 55.2242 116.696 55.199 116.866C53.5702 117.16 51.7845 117.313 50.2121 117.794C49.6848 115.963 48.9788 114.63 47.2667 113.679C45.7522 112.837 44.1861 112.792 42.533 113.265C41.0845 113.679 39.9816 114.684 39.2689 115.999C38.6363 117.166 38.5832 118.21 38.5898 119.508C38.5904 119.635 38.5998 119.586 38.5496 119.692C37.3636 119.762 35.2783 119.753 34.3467 118.894C33.9941 118.569 33.7718 118.075 33.761 117.596C33.7506 117.132 33.9503 116.636 34.2878 116.314C34.4183 116.19 34.5713 116.104 34.7278 116.018L33.9052 111.392C33.7198 110.357 33.4891 109.306 33.4113 108.258C33.1648 104.937 33.9665 101.294 35.3785 98.2987C35.7421 97.3129 36.342 96.4183 36.9642 95.5805C38.2584 93.8382 40.0515 92.4469 42.1607 91.8492C42.9496 91.6256 43.7952 91.5254 44.6018 91.3755L48.3059 90.7276Z" fill="#272727"/>
<path d="M112.658 68.9006C112.908 68.8982 113.173 68.8377 113.367 69.0015C113.314 69.2276 113.227 69.4016 113.119 69.6033C112.891 69.6323 112.893 69.6062 112.7 69.4741C112.592 69.2802 112.633 69.1104 112.658 68.9006Z" fill="#EFE9E3"/>
<path d="M120.287 106.601C120.889 106.898 121.586 107.139 122.141 107.513C119.327 109.678 116.439 111.606 113.245 113.165C112.77 113.37 112.303 113.586 111.8 113.714C114.991 111.791 117.706 109.266 120.287 106.601Z" fill="#EFE9E3"/>
<path d="M146.805 82.9614C147.301 82.7991 147.897 82.75 148.415 82.662L151.364 82.1636L152.277 87.6851L152.11 87.8248L150.444 88.1187C150.349 88.1355 150.064 88.2195 149.978 88.2009C149.808 88.1648 149.495 87.9362 149.337 87.8493C148.544 87.4118 147.756 86.9854 147.009 86.4692C146.981 85.7401 146.803 84.9973 146.68 84.2772C146.631 83.9886 146.536 83.6542 146.548 83.3657C146.558 83.1303 146.639 83.1084 146.805 82.9614Z" fill="#EFE9E3"/>
<path d="M127.487 95.8936C128.126 97.1224 128.543 98.6151 128.983 99.9281C127.283 102.086 125.636 104.184 123.661 106.102C123.331 106.421 122.916 106.915 122.508 107.108L122.211 106.934L120.735 106.118C122.291 104.298 123.786 102.458 125.068 100.429C125.986 98.9767 126.758 97.4477 127.487 95.8936Z" fill="#EFE9E3"/>
<path d="M81.268 25.8202L81.5344 25.768C81.5351 25.7983 81.5472 25.8305 81.5364 25.8587C81.4965 25.9633 80.9493 26.3435 80.8368 26.4431C80.2767 26.9388 79.7463 27.4822 79.2635 28.0538C77.0874 30.6303 75.7221 33.8154 74.494 36.9283L70.2817 35.8217L67.7583 34.9035C68.11 34.2768 68.9735 33.5828 69.5086 33.0746C72.8401 29.91 76.8081 27.0902 81.268 25.8202Z" fill="#EFE9E3"/>
<path d="M88.7767 24.4026L92.1946 24.4957C96.7782 24.8479 101.086 26.2749 105.154 28.3865L103.461 29.9036L99.351 32.7229C98.7718 31.8944 98.0391 31.126 97.3511 30.3868C95.4017 28.293 93.2259 26.3654 90.6322 25.1127C90.0395 24.8264 89.3975 24.6196 88.7767 24.4026Z" fill="#EFE9E3"/>
<path d="M86.8316 108.5C86.8807 108.489 87.0372 108.483 87.0769 108.509C87.3189 108.669 87.7025 109.362 87.8937 109.62C89.6979 112.052 91.9063 114.464 94.521 116.033C95.4817 116.61 96.498 117.018 97.5406 117.413C95.6012 117.526 93.7518 117.372 91.8385 117.066C87.9909 116.284 84.2057 114.977 80.8025 112.989C82.6516 111.247 84.6507 109.798 86.8316 108.5Z" fill="#EFE9E3"/>
<path d="M112.139 103.987C114.789 104.529 117.184 105.308 119.677 106.341C116.979 109.175 114.082 111.603 110.746 113.643C108.984 114.675 107.138 115.48 105.186 116.071C106.04 115.33 106.884 114.599 107.603 113.719C109.835 110.988 111.007 107.286 112.139 103.987Z" fill="#EFE9E3"/>
<path d="M36.0898 99.19L42.3489 98.0729C43.4633 97.876 44.6385 97.58 45.7639 97.4871C45.9101 97.475 45.9981 97.5053 46.1234 97.577C46.4002 98.044 46.4467 98.9425 46.5448 99.4938L47.2664 103.586L43.6051 104.235L43.1462 101.614C43.0917 101.331 43.0876 100.913 42.8765 100.72L42.0606 100.89L42.6653 104.389L34.379 105.851C34.6403 103.536 35.1704 101.333 36.0898 99.19Z" fill="#EFE9E3"/>
<path d="M96.0986 24.3136C97.315 24.3172 98.5526 24.5334 99.7561 24.7009C107.602 25.7923 115.119 29.1051 121.468 33.8084L120.045 36.5751L118.581 38.9584C117.579 37.5531 116.312 36.2864 115.101 35.0637C110.721 30.6452 105.444 27.2904 99.557 25.2952C98.4185 24.9093 97.2525 24.6445 96.0986 24.3136Z" fill="#EFE9E3"/>
<path d="M64.904 98.4722C65.712 99.8559 66.6401 101.102 67.6193 102.364C70.0476 105.497 73.0378 108.488 76.244 110.825C77.3463 111.628 78.5413 112.329 79.7124 113.026C82.6101 114.752 85.7466 116.184 89.0105 117.044C89.565 117.19 90.2137 117.262 90.7144 117.534C86.3326 117.252 81.7784 116.295 77.6836 114.674C75.8301 113.941 73.9796 113.148 72.2198 112.209L69.4129 110.686C69.1783 110.547 68.9887 110.334 68.7564 110.202C68.6428 110.137 68.5147 110.126 68.3879 110.116L68.2545 110.104L68.1672 110.103C67.9009 110.058 67.2909 110.242 67.0061 110.295L66.8485 109.834L66.8009 109.724C66.8504 109.643 66.9685 109.472 66.9679 109.376C66.9641 108.786 66.7095 108.003 66.5961 107.412L65.3137 101.027C65.1608 100.205 64.9183 99.3075 64.904 98.4722Z" fill="#EFE9E3"/>
<path d="M115.345 74.7425C117.896 75.3359 120.981 76.0375 122.462 78.441C122.977 79.2754 123.121 80.1865 123.428 81.1016C123.739 82.0275 124.215 82.892 124.9 83.5933C124.975 83.6693 124.946 83.6318 124.997 83.7327C124.397 83.9206 123.823 84.7305 123.541 85.2726C123.191 85.9464 123.039 86.9198 123.27 87.6638L115.425 86.0598C115.733 82.2792 115.709 78.5171 115.345 74.7425Z" fill="#EFE9E3"/>
<path d="M85.4996 24.87C86.1829 24.7575 86.8522 24.7506 87.5383 24.8389C90.763 25.254 93.4924 27.4799 95.7487 29.6756C96.8283 30.7261 97.907 31.8442 98.8256 33.0391L97.522 33.6874C95.8381 34.3944 94.1912 35.1225 92.4561 35.7031C90.8731 36.2328 89.2531 36.6047 87.6225 36.9503L85.4996 24.87Z" fill="#EFE9E3"/>
<path d="M99.4675 104.01C103.38 103.289 107.597 103.289 111.521 103.892C110.702 106.439 109.771 108.859 108.496 111.212L108.133 111.826C106.574 114.309 104.652 116.177 101.718 116.826L99.4675 104.01Z" fill="#EFE9E3"/>
<path d="M35.3704 106.67L47.406 104.507L48.9801 113.597C48.2491 113.055 47.5664 112.661 46.7195 112.328C44.0568 111.523 41.2667 112.114 39.2903 114.109C38.9935 114.408 38.7314 114.722 38.477 115.058C38.4233 115.13 38.2696 115.389 38.2009 115.429C38.0782 115.5 37.7372 115.512 37.5759 115.541L35.7221 115.872L34.8796 111.205C34.6236 109.775 34.2318 108.301 34.409 106.846L35.3704 106.67Z" fill="#AB8264"/>
<path d="M97.9855 104.3L98.8618 104.118L101.111 116.918L100.805 116.972C98.0005 117.411 95.605 116.126 93.4045 114.514C92.0545 113.398 90.7632 112.206 89.6179 110.876C88.8625 109.999 88.1984 109.032 87.5223 108.092C90.8945 106.299 94.2802 105.182 97.9855 104.3Z" fill="#EFE9E3"/>
<path d="M144.441 79.5501L152.708 78.1528C153.936 78.0093 155.226 78.8856 156.138 79.6298C156.263 79.7321 156.762 80.0937 156.776 80.2377L149.723 81.5157C148.669 81.6955 147.478 81.7529 146.465 82.0595C146.21 82.1363 145.986 82.2884 145.826 82.5019C145.345 83.1426 145.749 84.3904 145.877 85.1049L146.122 86.4269C146.147 86.558 146.162 86.8073 146.217 86.9143C146.299 87.0747 146.57 87.2438 146.713 87.3423C147.152 87.6436 149.495 89.1896 149.884 89.1836C150.145 89.1795 150.484 89.0723 150.744 89.0244L152.634 88.6817L160.552 87.2482L161.599 87.0234C162.499 89.0337 162.94 91.2189 163.197 93.3944C162.869 93.4566 161.102 93.8831 160.884 93.8334C160.644 93.7786 160.085 93.3116 159.837 93.1601C158.367 92.2641 156.612 91.9178 154.918 92.2158C153.134 92.5298 151.782 93.3264 150.619 94.7031C150.401 94.9618 150.08 95.5411 149.826 95.7164C149.647 95.8402 149.177 95.8652 148.954 95.9054L146.291 96.3784L144.423 85.8905C144.115 84.1586 143.71 82.3827 143.503 80.6385C143.481 80.4503 143.498 80.2777 143.582 80.1056C143.75 79.761 144.102 79.6581 144.441 79.5501Z" fill="#AB8264"/>
<path d="M105.769 28.7568C106.289 28.9607 106.835 29.3707 107.316 29.6627C109.763 31.1455 111.998 32.9792 114.062 34.9561C115.545 36.3763 116.962 37.8648 118.21 39.5002C116.139 42.033 113.877 44.2525 111.286 46.2441L108.497 48.1535C106.265 42.8393 103.315 37.7747 99.8075 33.2069C101.932 31.926 103.93 30.4221 105.769 28.7568Z" fill="#EFE9E3"/>
<path d="M125.895 91.6534L127.216 95.1276C126.862 96.0972 126.279 97.02 125.766 97.9129C124.105 100.801 122.305 103.365 120.086 105.849L118.251 105.071C116.322 104.335 114.327 103.768 112.293 103.422L113.872 97.559C114.662 93.9734 115.094 90.3308 115.406 86.6764L123.335 88.3232C123.539 88.5008 123.566 88.8178 123.664 89.0715C123.794 89.4065 123.983 89.7434 124.191 90.0333C124.669 90.6962 125.365 91.0676 125.895 91.6534Z" fill="#EFE9E3"/>
<path d="M96.4934 87.1212C100.787 86.2872 105.354 86.0389 109.718 86.2059L114.839 86.5936L112.851 99.0753L111.667 103.243C111.529 103.332 111.035 103.208 110.855 103.183L108.999 102.983C105.762 102.707 102.565 102.946 99.3563 103.391L96.4934 87.1212Z" fill="#EFE9E3"/>
<path d="M98.9657 33.6104L99.2212 33.5268C99.9223 34.2071 100.505 35.1315 101.069 35.9329C103.828 39.8555 106.034 44.0686 107.969 48.4491C104.254 50.4414 100.474 52.0695 96.4219 53.2496L90.7604 54.59L87.7567 37.6138L91.5466 36.5957C94.0945 35.8086 96.5827 34.8073 98.9657 33.6104Z" fill="#EFE9E3"/>
<path d="M114.765 74.6403L114.87 85.9804C108.75 85.2065 102.455 85.5582 96.3814 86.5106L93.6207 70.8512C96.9356 70.2105 100.426 69.7969 103.802 69.6663L111.765 69.6111C111.833 69.8319 111.89 70.0822 111.993 70.2875C112.019 71.1292 112.019 71.9908 112.418 72.753L112.478 72.8713C112.823 73.5283 113.367 73.9733 114.025 74.2954C114.253 74.4066 114.564 74.4955 114.765 74.6403Z" fill="#EFE9E3"/>
<path d="M111.79 69.0422C111.541 69.1703 110.778 69.0425 110.473 69.0348L106.696 68.9956C102.274 69.0461 97.869 69.5487 93.5104 70.2771L90.8636 55.2178C93.3115 54.6831 95.7383 54.1186 98.1237 53.3426C101.621 52.2044 104.932 50.7295 108.192 49.0341C108.385 49.2769 108.49 49.6481 108.608 49.9372L109.314 51.732C111.012 56.3188 112.584 60.9579 113.431 65.7889L113.376 65.8436C113.272 65.9391 113.337 65.8852 113.224 65.9388C112.75 66.1621 112.143 67.0398 111.982 67.5356C111.841 67.9673 111.671 68.5948 111.79 69.0422Z" fill="#EFE9E3"/>
<path d="M86.4464 37.7598C86.6734 37.7478 86.9589 37.6846 87.1517 37.8028L90.1456 54.6929C86.934 55.1605 83.738 55.4191 80.4897 55.3202C77.5173 55.2297 74.5776 54.8417 71.639 54.4057C72.0663 46.6868 73.7877 38.6744 77.5116 31.8539C78.7128 29.6542 80.3208 27.2965 82.4882 25.9637C83.2288 25.5082 84.003 25.2247 84.8336 24.9808L86.4468 33.6219C86.7809 34.3529 86.9011 35.1791 87.0297 35.9686C87.0761 36.2544 87.1733 36.6106 87.1303 36.8985C86.914 37.135 86.5034 37.4481 86.4464 37.7598Z" fill="#EFE9E3"/>
<path d="M86.4463 37.7599C84.9129 38.4159 83.2238 39.8005 82.1705 41.0914C80.9026 42.6458 79.795 44.8206 80.0163 46.8928L80.029 47.0028C79.2308 46.3738 78.5418 45.4206 77.9961 44.5663C76.7649 42.6388 75.8629 39.9125 76.3755 37.6313C76.6198 36.5447 77.2214 35.4426 78.2069 34.8686C79.0106 34.4004 80.2129 34.3544 81.1186 34.1919C82.5292 33.9387 84.0628 33.5597 85.4914 33.5055C85.8227 33.4931 86.1248 33.5481 86.4467 33.622C86.7809 34.353 86.9011 35.1792 87.0296 35.9687C87.0761 36.2545 87.1733 36.6107 87.1303 36.8986C86.914 37.1351 86.5034 37.4482 86.4463 37.7599Z" fill="#AB8264"/>
<path d="M125.501 84.0522L124.764 79.6445C124.63 78.8083 124.644 78.1564 125.177 77.4578C125.418 77.1414 125.76 76.8755 126.135 76.7402C126.635 76.56 127.24 76.5045 127.764 76.4113L131.002 75.8459C134.142 75.2977 137.316 74.6073 140.479 74.2335L142.009 73.9994C142.564 73.9208 142.923 73.8607 143.411 74.1971C143.642 74.3566 143.812 74.5773 143.918 74.8343L143.955 74.9199C144.112 75.3167 144.157 75.7796 144.229 76.1991L144.611 78.5197C143.865 78.6725 143.224 78.845 142.788 79.5363C142.622 79.8 142.519 80.138 142.536 80.4507C142.567 81.0145 142.727 81.6245 142.828 82.1823L143.438 85.581L145.383 96.6977L142.85 97.1627C141.28 95.8821 139.536 95.0255 137.458 95.2348C135.338 95.4484 133.595 96.3162 132.257 97.9962C132.048 98.2584 131.876 98.5412 131.705 98.8293C131.687 98.8602 131.588 99.0585 131.562 99.0746C131.281 99.2488 130.386 99.3517 130.047 99.4224L128.63 95.8139C128.145 94.5685 127.704 93.2502 127.057 92.0773C126.722 91.2442 126.638 90.2157 126.473 89.3315L125.501 84.0522Z" fill="#EFE9E3"/>
<path d="M138.981 86.915L138.885 87.0707L130.762 88.4698L129.973 84.0298C129.895 83.584 129.637 82.7371 129.735 82.3223L129.905 82.2466L130.071 82.3304L131.075 88.0041L134.627 87.3817L133.905 83.214C133.823 82.7358 133.609 82.0729 133.701 81.6107L133.906 81.5434C133.948 81.573 134.002 81.59 134.032 81.632C134.141 81.7889 134.196 82.5543 134.234 82.7716L135.042 87.3068L137.496 86.8745C137.802 86.8197 138.236 86.7939 138.511 86.6565L138.604 86.6071L138.264 84.6752L137.618 80.9997L137.714 80.8645L137.907 80.9088L138.618 84.7965C138.74 85.476 138.952 86.2305 138.981 86.915Z" fill="#272727"/>
<path d="M48.3059 90.7276L50.3572 90.3865L62.9919 88.1333L64.042 94.2973C64.1858 95.1055 64.2335 96.2559 64.6231 96.9541C64.5073 97.4049 64.6998 97.998 64.8792 98.4065L64.904 98.4722C64.9183 99.3075 65.1607 100.205 65.3136 101.027L66.5961 107.412C66.7094 108.003 66.9641 108.786 66.9679 109.376C66.9685 109.472 66.8504 109.643 66.8009 109.724L66.8484 109.834L67.0061 110.295C67.2908 110.242 67.9009 110.058 68.1672 110.103C68.0698 110.178 67.8062 110.204 67.6795 110.23L65.8681 110.572C65.7487 110.594 65.3973 110.701 65.2905 110.678C65.1106 110.639 64.676 110.246 64.4972 110.13C62.9703 109.139 61.3321 108.889 59.5692 109.298C57.6083 109.753 56.2151 110.765 55.146 112.462L49.9314 113.354L47.9916 102.29L47.4374 99.1471C47.3402 98.5997 47.2798 97.9997 47.1159 97.4696C47.018 97.1531 46.855 96.871 46.5768 96.6819C46.3463 96.5253 46.0917 96.468 45.8158 96.4746C44.744 96.5003 43.5323 96.8395 42.4706 97.0248L35.3786 98.2987C35.7421 97.3129 36.342 96.4184 36.9642 95.5805C38.2584 93.8382 40.0515 92.4469 42.1607 91.8492C42.9497 91.6256 43.7953 91.5254 44.6018 91.3755L48.3059 90.7276Z" fill="#AB8264"/>
<path d="M46.6683 73.1738L46.7576 73.2837C47.1291 73.7566 47.3513 74.3914 47.6908 74.9027C49.0769 76.9898 50.8999 78.1562 53.3735 78.5044C54.0929 78.6058 54.8211 78.5979 55.5409 78.7096C57.5058 79.0147 59.6153 79.9537 61.0425 81.3659L61.4499 81.1837L63.6444 80.5578C64.0938 80.434 64.5508 80.3488 64.9606 80.1169C65.5352 80.0452 66.2647 80.3873 66.7966 80.5855L70.0014 81.7805L74.4745 83.3193C75.1791 83.5683 76.1202 84.0746 76.8561 84.1279L79.281 97.8909C79.3951 98.5389 79.864 101.965 80.1254 102.316C80.8433 102.035 81.662 101.157 82.2856 100.655C83.0538 102.136 83.8222 103.625 84.7063 105.041L85.8238 106.767C86.0683 107.116 86.4425 107.527 86.5938 107.92C84.292 109.258 82.2727 110.847 80.3304 112.662C79.9992 112.567 79.6832 112.316 79.3906 112.13L77.7147 111.038C74.601 108.923 71.7248 106.391 69.2952 103.509C67.5442 101.432 66.0774 99.2423 64.6231 96.954C64.2335 96.2558 64.1858 95.1054 64.042 94.2972L62.9919 88.1332L50.3572 90.3864L48.7405 85.5969C47.5299 81.5337 46.8411 77.4086 46.6683 73.1738Z" fill="#EFE9E3"/>
<path d="M64.9606 80.1169L64.9753 80.7149L64.7906 80.8621C63.7356 81.1866 62.5431 81.5996 61.4449 81.7133L61.0425 81.3659L61.4499 81.1837L63.6444 80.5578C64.0938 80.434 64.5508 80.3488 64.9606 80.1169Z" fill="#272727"/>
<path d="M64.9606 80.1169C65.5352 80.0452 66.2648 80.3873 66.7966 80.5855L70.0014 81.7805L74.4746 83.3194C75.1791 83.5683 76.1202 84.0746 76.8562 84.1279L79.281 97.8909C79.3951 98.5389 79.864 101.965 80.1254 102.316C79.7074 102.295 79.2794 102.131 78.8823 102.004L76.7844 101.315L68.1749 98.3244L64.985 80.9624L64.7906 80.8621L64.9753 80.7149L64.9606 80.1169Z" fill="#AB8264"/>
<path d="M113.892 65.0911C113.706 63.8383 113.368 62.5866 113.067 61.3575C112.009 57.0371 110.529 52.8227 108.728 48.7568C112.451 46.4659 115.935 43.4613 118.635 40.0118C119.693 41.4483 120.815 42.9325 121.684 44.4939C121.886 44.8578 122.506 46.4099 122.821 46.5694C123.039 46.527 123.191 46.5313 123.364 46.3841C123.264 45.9616 122.956 45.4902 122.748 45.1025C121.691 43.1232 120.364 41.2884 119.044 39.4801L121.966 34.2198C125.385 36.6971 128.285 39.9449 130.859 43.2658C132.015 44.701 133.013 46.2441 133.958 47.8247C137.735 54.1439 140.057 61.5744 140.519 68.9258C140.617 70.489 140.699 72.2091 140.529 73.7682L140.479 74.2336C137.316 74.6073 134.142 75.2978 131.002 75.846L127.764 76.4114C127.24 76.5045 126.635 76.5601 126.135 76.7403C125.76 76.8755 125.418 77.1415 125.177 77.4579C124.644 78.1565 124.63 78.8084 124.764 79.6446L125.501 84.0523L126.473 89.3316C126.638 90.2157 126.722 91.2443 127.057 92.0774C126.658 91.9713 126.315 91.6619 125.896 91.6535C125.365 91.0677 124.669 90.6963 124.191 90.0334C123.983 89.7435 123.794 89.4066 123.664 89.0716C123.566 88.8179 123.539 88.5009 123.335 88.3233L123.27 87.6639C123.039 86.9199 123.191 85.9464 123.541 85.2726C123.823 84.7306 124.397 83.9206 124.997 83.7327C124.946 83.6319 124.975 83.6693 124.9 83.5934C124.215 82.8921 123.739 82.0275 123.428 81.1017C123.121 80.1865 122.977 79.2754 122.462 78.4411C120.981 76.0376 117.896 75.3359 115.345 74.7425L114.765 74.6403C114.564 74.4955 114.253 74.4066 114.025 74.2955C113.367 73.9734 112.823 73.5284 112.478 72.8713L112.418 72.753C112.019 71.9908 112.019 71.1292 111.993 70.2875L112.676 70.748C113.005 70.6949 113.422 70.6576 113.712 70.4897C113.886 70.3894 114.037 70.1506 114.064 69.9501C114.094 69.7261 114.029 69.4821 113.896 69.3032C113.751 69.1095 113.604 69.0404 113.367 69.0016C113.173 68.8377 112.908 68.8982 112.658 68.9006C112.394 68.8621 112.053 68.9851 111.79 69.0423C111.671 68.5948 111.841 67.9673 111.982 67.5357C112.143 67.0398 112.75 66.1622 113.224 65.9389C113.337 65.8853 113.272 65.9392 113.376 65.8437L113.431 65.789C113.668 65.6375 113.788 65.3408 113.892 65.0911Z" fill="#AB8264"/>
<path d="M113.892 65.0911C113.706 63.8383 113.368 62.5866 113.067 61.3575C112.009 57.0371 110.529 52.8227 108.728 48.7568C112.451 46.4659 115.935 43.4613 118.635 40.0118C119.693 41.4483 120.815 42.9325 121.684 44.4939C121.886 44.8578 122.506 46.4099 122.821 46.5694C123.039 46.527 123.191 46.5313 123.364 46.3841C123.264 45.9616 122.956 45.4902 122.748 45.1025C121.691 43.1232 120.364 41.2884 119.044 39.4801L121.966 34.2198C125.385 36.6971 128.285 39.9449 130.859 43.2658C129.681 45.0769 128.115 47.5343 125.851 48.0089L122.904 48.5349C121.337 48.8079 119.77 49.0546 118.829 50.5201C118.303 51.3399 118.217 52.1551 118.43 53.087C118.519 53.4769 118.794 54.057 118.777 54.4331C117.606 54.6315 116.2 54.6724 115.446 55.7363C115.028 56.3268 114.993 56.8948 115.141 57.582C115.247 58.0725 115.599 58.5786 116.023 58.8456C116.973 59.4448 118.045 59.2415 119.061 58.9888C119.548 57.5966 120.235 56.6595 121.583 55.9961L122.253 55.7221L122.364 55.6813C123.662 55.2221 125.25 55.3476 126.48 55.9598C127.227 56.332 127.68 56.8522 128.172 57.5123C128.266 57.0454 128.332 56.1993 128.801 55.9538C129.098 55.7977 129.595 55.7574 129.902 55.9063C130.38 56.1388 130.674 56.6382 130.814 57.1332L130.891 57.4364C132.03 57.6759 133.107 58.1218 134.197 58.5195L136.576 59.333L126.548 61.1411C126.247 60.7732 125.946 60.3798 125.582 60.0713C124.822 59.4247 123.645 59.0769 122.665 58.9868C120.583 58.7955 118.088 59.7658 116.511 61.1167C115.304 62.1502 114.504 63.6438 113.892 65.0911Z" fill="#EFE9E3"/>
<path d="M114.648 46.844C114.825 46.7968 114.804 46.7672 114.978 46.857C115.2 47.3146 115.841 48.2749 115.79 48.7574L115.556 48.7518C115.296 48.3743 114.579 47.2507 114.648 46.844Z" fill="#272727"/>
<path d="M117.093 44.5025L117.263 44.4586L118.201 45.7539C118.483 45.8137 119.221 45.266 119.603 45.1898C119.717 45.3598 119.688 45.3269 119.66 45.5116C119.295 45.8102 118.881 46.0371 118.477 46.2763C118.755 46.8295 119.113 47.3472 119.334 47.9279L119.165 48.105L118.965 48.0663L117.918 46.5647C117.531 46.8012 116.888 47.2699 116.428 47.2128L116.352 47.1006C116.528 46.8639 116.796 46.7632 117.037 46.6081C117.112 46.5599 117.675 46.1984 117.687 46.1575C117.688 46.1547 117.603 45.9529 117.593 45.9293C117.404 45.4967 117 44.9614 117.093 44.5025Z" fill="#272727"/>
<path d="M124.131 37.6754L126.186 40.2836C126.614 40.8493 127.09 41.4514 127.317 42.1325C127.547 42.8216 127.491 43.4904 127.144 44.1327C126.734 44.8914 126.089 45.2284 125.296 45.4388C124.696 45.4924 124.124 45.4211 123.595 45.1123C123.187 44.874 122.517 44.2578 122.467 43.7568L122.471 43.5986C122.486 42.4356 122.879 41.3885 123.26 40.3036L124.131 37.6754Z" fill="#AB8264"/>
<path d="M59.5491 38.7874C60.5336 37.7122 61.654 36.7196 62.75 35.7616C65.7903 33.104 68.8809 30.9978 72.4645 29.1285C73.3703 28.6562 74.3172 28.0788 75.3068 27.8047L73.4724 28.9995C71.6573 30.3075 69.9174 31.796 68.3265 33.3687C67.779 33.9098 67.1729 34.4564 66.7387 35.0939C68.9945 36.3481 71.7615 36.9546 74.2592 37.5538C71.0245 46.6522 70.2528 56.7512 71.4144 66.3083C71.5929 67.7759 71.7497 69.3136 72.0705 70.7573L72.2011 70.8227C72.3462 70.7064 72.505 70.6283 72.5362 70.4273L71.6126 55.0023C72.8512 55.2897 74.13 55.4346 75.3913 55.5893C80.281 56.1893 85.3899 56.1893 90.2498 55.3297L92.9258 70.3145C91.5074 70.6288 90.0941 70.9251 88.7068 71.3604C88.3775 71.4638 87.6984 71.62 87.4826 71.8978L87.5108 72.2442L87.6583 72.3285C89.0741 71.887 90.4866 71.4766 91.9365 71.1607C92.2356 71.0956 92.7292 70.9216 93.0217 70.9789L95.7805 86.6197C94.4259 86.8854 92.9283 87.0694 91.6272 87.5171C91.5783 87.7276 91.6341 87.8847 91.6901 88.0861C91.9382 88.1753 92.331 88.0083 92.5923 87.9418L94.9465 87.4102C95.2137 87.3551 95.6134 87.2141 95.8784 87.2712L98.7527 103.493C94.65 104.23 90.8208 105.66 87.1406 107.6C85.5022 105.311 83.9031 102.812 82.7902 100.219L88.5011 95.5721L89.9419 94.4207C90.1427 94.2557 90.4312 94.058 90.5577 93.8307L87.1887 74.9398L76.8561 84.1279C76.1202 84.0746 75.1791 83.5683 74.4745 83.3194L70.0014 81.7806L66.7966 80.5855C66.2647 80.3873 65.5352 80.0452 64.9606 80.1169C64.5507 80.3489 64.0938 80.4341 63.6444 80.5579L61.4499 81.1838L61.0425 81.3659C59.6153 79.9537 57.5058 79.0147 55.5409 78.7096C54.8211 78.5979 54.0929 78.6058 53.3735 78.5044C50.8999 78.1562 49.0769 76.9899 47.6908 74.9028C47.3513 74.3914 47.1291 73.7566 46.7576 73.2837L46.6683 73.1739C46.6402 73.0109 46.6393 72.8499 46.6351 72.685C46.3225 60.199 50.9429 47.8281 59.5491 38.7874Z" fill="#EFE9E3"/>
<path d="M59.2326 74.0906L63.9055 73.2655C64.5166 73.1566 65.5282 72.8246 66.1143 72.9702C66.1951 73.187 66.1922 73.1762 66.1066 73.3917C65.5871 73.6111 64.8966 73.648 64.3328 73.7435C62.5432 74.0465 60.6764 74.248 58.909 74.6338L58.8979 74.5116C59.0924 74.4098 59.1419 74.2788 59.2326 74.0906Z" fill="#272727"/>
<path d="M75.0416 71.4156C75.7633 71.5222 76.5401 71.8687 77.2439 72.0931L80.5524 73.0779C82.3413 73.5955 84.2363 73.9273 85.9882 74.5425L76.938 82.5911L76.6176 82.8227C76.1888 82.8104 75.6849 82.5405 75.2727 82.3938L72.2904 81.3378L68.7044 80.0548C67.7656 79.7275 66.8071 79.4336 65.9179 78.9843C66.5352 78.2203 67.3936 77.633 68.1429 77.0062L72.3611 73.5298C73.2533 72.8228 74.2085 72.1944 75.0416 71.4156Z" fill="#AB8264"/>
<path d="M59.5491 38.7874C59.5687 39.9307 59.5669 40.6827 60.4349 41.5229L60.8856 41.9272L62.2556 40.3454C63.0699 39.3691 63.7571 38.4825 65.1438 38.4475C66.0532 38.4247 67.0582 38.8828 67.7039 39.5267C68.458 40.2787 68.8691 41.2732 68.8739 42.339L68.8756 42.4509C68.8711 43.7805 67.5046 45.1864 66.7578 46.231C67.1437 46.6226 67.6258 47.2611 68.1177 47.4811C68.6611 47.7241 69.3979 47.5618 69.9372 47.8047C70.1675 47.9083 70.4411 48.3163 70.57 48.527C70.7839 48.8765 70.9267 49.318 70.9114 49.7326C70.8867 50.411 70.3235 51.0875 69.8279 51.4919C68.7885 52.3399 67.641 52.417 66.369 52.5735C67.5212 53.3976 68.5439 53.9003 69.8771 54.3646C68.4292 55.6822 66.9748 56.9398 65.6849 58.4224C62.7543 61.7906 61.0202 66.242 60.5614 70.6587C59.2111 69.8333 57.9002 69.4354 56.3326 69.8202C55.0459 70.1362 53.9193 70.9786 53.2443 72.1222C52.7681 72.9294 52.5599 74.0946 52.8037 75.006C52.98 75.6647 53.3247 76.2184 53.9368 76.5496C54.1141 76.6456 54.2374 76.6678 54.4351 76.6942L54.5445 76.7169C54.995 76.7696 55.4727 76.5671 55.7947 76.2614C56.1759 75.8993 56.2259 75.4823 56.2664 74.9841C56.2703 74.935 56.2798 74.6118 56.294 74.5924C56.378 74.4778 58.9287 74.1036 59.2326 74.0905C59.1419 74.2787 59.0924 74.4097 58.8979 74.5115L58.909 74.6337C58.4999 74.8022 58.1464 75.031 57.9852 75.4674C57.8725 75.7727 57.9592 76.2322 58.0969 76.5218C58.2705 76.8874 58.62 77.1653 59.0014 77.2847C59.5124 77.4445 59.8937 77.247 60.3527 77.0459L61.4499 81.1837L61.0425 81.3659C59.6153 79.9537 57.5058 79.0147 55.5409 78.7096C54.8211 78.5979 54.0929 78.6058 53.3735 78.5043C50.8999 78.1562 49.0769 76.9898 47.6908 74.9027C47.3514 74.3914 47.1291 73.7565 46.7576 73.2837L46.6683 73.1738C46.6402 73.0108 46.6393 72.8499 46.6351 72.6849C46.3225 60.1989 50.9429 47.8281 59.5491 38.7874Z" fill="#AB8264"/>
<path d="M64.7315 40.9591C65.1489 40.8743 65.5021 40.8023 65.8951 41.0157C66.281 41.2253 66.4991 41.468 66.5969 41.9048C66.6293 42.0489 66.6347 42.1937 66.6128 42.3397C66.5634 42.6697 66.3148 42.962 66.1305 43.2297L65.0373 44.8239C64.5711 45.541 64.1213 46.274 63.7513 47.0463C63.2494 48.0941 62.9982 49.2816 62.9349 50.44C62.9103 50.8921 62.9648 51.4644 62.8043 51.8891C62.507 52.6752 61.7764 53.5751 61.2981 54.272C60.8307 53.2038 60.1363 51.9999 59.9863 50.8338L60.3074 49.454L59.9519 49.7065C59.5093 49.9881 59.0049 50.1945 58.5253 50.4052C58.391 50.4642 58.1648 50.6063 58.032 50.62C57.9099 50.6328 57.5302 50.4745 57.395 50.4335L55.4515 49.8908C56.8589 48.198 58.9051 47.3682 60.4574 45.8725C61.2408 45.1178 61.9718 44.2858 62.6521 43.4369C63.3044 42.6229 63.9154 41.6015 64.7315 40.9591Z" fill="#EFE9E3"/>
</g>
<defs>
<clipPath id="clip0_1_659">
<rect width="160" height="160" fill="white" transform="translate(0.62793 5.93872) rotate(-10)"/>
</clipPath>
</defs>
</svg>
