<svg width="128" height="156" viewBox="0 0 128 156" fill="none" xmlns="http://www.w3.org/2000/svg">
<path d="M41.9011 113.622C45.3993 113.565 49.0648 113.561 52.4775 114.421C53.8339 114.763 55.1284 115.281 56.3908 115.879L58.324 116.858C58.4557 116.926 58.7999 117.076 58.8777 117.188C58.909 117.233 58.9145 117.292 58.9329 117.343L58.6925 117.61C57.8853 117.985 56.9106 118.253 56.0246 118.353C51.9981 118.806 48.1499 117.329 44.6985 115.388C43.7554 114.858 42.7482 114.298 41.9011 113.622Z" fill="#272727"/>
<path d="M33.4104 101.4L39.985 103.148C42.992 104.228 45.9363 105.635 48.2364 107.91C48.6331 108.303 49.145 108.791 49.3643 109.314C49.4831 109.598 49.5038 109.767 49.3854 110.042C49.0957 110.305 48.8637 110.329 48.4791 110.322C47.3235 110.3 46.1408 109.963 45.0563 109.583C40.5138 107.994 36.6994 104.846 33.4104 101.4Z" fill="#272727"/>
<path d="M128.987 98.7871L131.728 98.2853C128.813 101.664 125.428 105.164 121.135 106.714C120.346 106.998 119.568 107.167 118.736 107.268C117.846 107.383 116.816 107.511 115.926 107.364C116.776 106.7 117.486 105.828 118.263 105.077C119.585 103.801 120.956 102.388 122.473 101.347C124.41 100.016 126.724 99.3221 128.987 98.7871Z" fill="#272727"/>
<path d="M30.2731 85.8517C31.0396 86.3254 31.7642 86.9722 32.48 87.5231C35.3318 89.7179 38.3659 92.0496 40.4573 95.0182C41.441 96.4146 42.3251 97.9616 42.018 99.729C41.9303 99.8622 41.8639 99.9827 41.7162 100.057C41.4135 100.208 40.7834 99.9365 40.4867 99.8061C39.0717 99.1835 37.8181 98.1201 36.777 96.9914C34.6805 94.7187 33.2828 92.1384 31.9226 89.389C31.3497 88.2312 30.7397 87.0562 30.2731 85.8517Z" fill="#272727"/>
<path d="M134.635 83.6582L134.825 83.6247C134.744 84.0366 134.508 84.4712 134.338 84.8568L133.247 87.176C131.722 90.2189 129.86 92.97 127.247 95.1831C125.975 96.2599 124.695 97.1098 123.109 97.636L122.911 97.6024C122.772 97.1608 122.712 96.6429 122.804 96.1866C123.063 94.8997 123.742 93.7664 124.48 92.7028C127.133 88.8774 130.825 86.2212 134.635 83.6582Z" fill="#272727"/>
<path d="M132.7 67.8416L132.834 67.856C132.956 68.6721 132.817 69.6463 132.754 70.4695C132.486 73.9665 132.026 77.4781 130.653 80.7309C130.019 82.2331 129.15 83.711 127.906 84.7851C127.628 85.0259 127.32 85.2899 126.971 85.4204C126.774 85.4943 126.703 85.5321 126.509 85.4394C126.127 85.0186 125.962 84.202 125.902 83.6458C125.827 82.9424 125.864 82.2408 126.022 81.551C126.501 79.4617 127.406 77.4449 128.354 75.5312L130.937 70.6733C131.481 69.7234 132.013 68.6929 132.7 67.8416Z" fill="#272727"/>
<path d="M66.6142 21.9628L66.3573 20.4446L71.0497 19.6201L78.2424 60.6258L77.8372 60.7311C76.8396 60.1812 75.9071 59.5875 74.9658 58.9475C74.3028 58.497 73.6219 57.9729 72.906 57.6146L66.6142 21.9628Z" fill="#AB8264"/>
<path d="M71.6843 39.2502C71.8484 39.1786 72.0397 39.1322 72.2199 39.13C72.4647 39.1268 72.7096 39.2819 72.8674 39.46C73.204 39.8398 73.7549 42.8518 73.7181 43.4264C73.6934 43.8114 73.4517 44.0536 73.1737 44.2864C73.0249 44.3293 72.8843 44.3657 72.7283 44.3662C72.3374 44.3672 72.0943 44.124 71.8265 43.8729C71.5933 43.1383 71.5157 42.2927 71.3859 41.5308C71.3056 41.0588 71.115 40.4217 71.2002 39.9543C71.2595 39.6289 71.4251 39.4386 71.6843 39.2502Z" fill="#EFE9E3"/>
<path d="M71.8829 19.4711L76.65 18.5887L83.1684 55.5256L80.5803 59.1164C80.3777 59.3972 79.7676 60.1153 79.7774 60.4584L79.1137 60.4731L71.8829 19.4711Z" fill="#AB8264"/>
<path d="M78.0491 42.7942C78.2223 42.7231 78.4172 42.6751 78.6059 42.6724C78.8267 42.6689 79.0653 42.8527 79.2064 43.008C79.5626 43.4003 80.0865 46.4084 80.04 47.0001C80.01 47.3815 79.7935 47.5601 79.5132 47.7895C79.344 47.8285 79.1592 47.8806 78.9847 47.8769C78.7111 47.871 78.4502 47.7076 78.2833 47.4978C77.9637 47.0961 77.4639 44.1315 77.536 43.5644C77.5787 43.2283 77.7877 42.9884 78.0491 42.7942Z" fill="#EFE9E3"/>
<path d="M77.4702 18.4632L77.5693 18.4548L82.939 17.5273L84.776 28.0427C89.8303 28.5772 94.9156 29.8913 99.5754 31.9402C100.936 32.5383 102.219 33.2406 103.53 33.9353C103.739 34.046 103.972 34.0964 104.188 34.2107L107.378 36.0165C110.233 37.6531 113.185 39.3911 115.29 41.9822C117.446 44.635 118.524 47.836 118.734 51.2211L118.858 53.2238C118.868 53.385 118.837 53.7406 118.885 53.8772C118.937 54.0216 119.15 54.2553 119.244 54.3854L120.079 55.5911L121.363 57.8054C121.245 57.0227 121.1 56.2297 121.057 55.4387C120.951 53.4844 121.192 51.5995 121.621 49.6968L122.361 46.6851L123.076 42.3239C123.67 43.5419 124.114 44.8962 124.523 46.1876C125.994 50.8251 126.667 55.6787 125.052 60.3619C124.808 61.0704 124.515 61.7679 124.198 62.4466L123.636 63.6022C123.584 63.7139 123.446 63.943 123.432 64.0595C123.419 64.1623 123.554 64.5185 123.584 64.6408L124.098 66.8905L124.883 70.9263C125.002 71.6768 125.011 72.6057 125.252 73.3157C125.483 71.337 125.178 69.2539 125.272 67.2538C125.332 65.9794 125.492 64.668 125.794 63.4287C126.196 61.7805 126.811 60.1744 127.334 58.5616C127.815 57.0781 128.298 55.4231 128.983 54.0221C129.629 56.9353 130.267 59.8209 130.418 62.8117C130.551 65.4614 130.305 67.9394 128.856 70.2252C128.324 71.0651 127.689 71.8266 127.016 72.5556L125.766 73.7905C125.662 73.8896 125.399 74.0872 125.359 74.2111C125.311 74.3592 125.553 76.387 125.56 76.7649C125.607 79.3338 125.536 81.9198 125.224 84.4719C124.615 89.4727 123.361 94.3846 121.244 98.9535C120.842 99.8208 120.46 100.707 119.982 101.536C119.036 103.181 117.894 104.701 116.711 106.18C116.421 106.542 116.149 106.967 115.828 107.298C115.68 107.45 115.499 107.561 115.349 107.728C113.236 110.071 111.002 112.133 108.492 114.047C106.881 115.276 105.214 116.406 103.476 117.446C102.933 117.771 102.345 118.187 101.744 118.387C101.564 118.315 101.501 118.271 101.394 118.109C101.377 117.929 101.339 117.868 101.475 117.728C101.759 117.434 102.334 117.201 102.692 116.995L104.722 115.752C107.611 113.857 110.257 111.745 112.747 109.348C113.658 108.471 114.592 107.589 115.321 106.55C114.598 105.278 113.872 104.024 113.449 102.612C112.255 98.6248 112.417 93.9393 112.823 89.8511C112.91 88.9716 112.957 88.0119 113.179 87.1554C113.766 88.2451 114.213 89.4586 114.632 90.6221C115.946 94.2698 116.813 98.0601 116.403 101.96C116.246 103.453 115.795 104.849 115.529 106.314C116.492 105.35 117.311 104.188 118.061 103.051C118.922 101.746 119.714 100.424 120.388 99.0103C120.694 98.3684 121.04 97.7123 121.242 97.0298C119.87 96.0174 118.827 94.6449 117.98 93.1765C116.053 89.8325 115.128 86.1646 114.549 82.3792C114.428 81.5884 114.29 80.7832 114.321 79.981C115.212 80.8841 116.03 81.9314 116.801 82.9376C117.88 84.3472 118.904 85.8405 119.675 87.4453C120.844 89.8779 121.42 92.6258 121.414 95.3178L121.324 96.8285C122.473 94.033 123.401 91.1553 123.773 88.1432L120.762 85.5378C117.607 82.569 115.486 78.9593 114.191 74.8313L113.434 71.9756C113.317 71.4689 113.152 70.8709 113.132 70.3518C113.128 70.2559 113.154 70.1859 113.183 70.0965C113.692 70.3119 114.241 71.0258 114.646 71.4326C116.773 73.5696 118.957 75.7963 120.677 78.2815C121.428 79.3667 122.061 80.5628 122.558 81.7849C123.065 83.0305 123.314 84.3464 123.526 85.6683C123.601 86.1425 123.63 86.647 123.73 87.1134C123.762 87.2614 123.792 87.3517 123.915 87.4442C124.123 87.1416 124.142 86.4262 124.201 86.0408C124.611 83.3698 124.882 80.7002 124.873 77.9948C124.871 77.5061 124.911 76.87 124.823 76.3911L124.79 76.2741C121.11 75.4728 117.921 73.3688 115.862 70.1741C114.671 68.3279 113.757 66.3996 112.921 64.3736C112.791 64.0587 112.502 63.575 112.533 63.2454C113.112 63.0488 114.642 63.9888 115.199 64.2644C118.361 65.8288 120.927 68.0545 122.552 71.2381C122.994 72.1041 123.391 73.0087 123.752 73.9116L124.131 74.8894C124.185 75.0341 124.237 75.2676 124.323 75.3892C124.428 75.5383 124.455 75.5455 124.622 75.5128C124.814 74.8409 124.553 73.6545 124.462 72.9639C124.177 70.8108 123.875 68.6448 123.328 66.5392C123.067 66.3165 122.792 66.0667 122.48 65.9211C121.757 65.5834 120.659 65.5835 119.868 65.4264C118.308 65.1169 116.789 64.5953 115.425 63.7658C113.016 62.3016 111.171 60.0516 109.502 57.8208C109.169 57.3762 107.657 55.5497 107.635 55.0739L107.639 54.9883L107.761 54.8796C108.804 55.1192 109.894 55.6201 110.917 55.9749C113.121 56.739 115.417 57.4599 117.323 58.8525C118.508 59.7184 119.529 60.8027 120.473 61.9214C121.446 63.0758 122.158 64.4433 123.143 65.5647C122.831 64.1794 122.551 62.765 122.121 61.4112C121.401 59.1437 120.235 56.9198 118.896 54.9596C117.825 55.2802 116.755 55.5695 115.637 55.6597C113.5 55.8318 111.427 55.2069 109.56 54.1988C107.852 53.2763 106.43 52.0044 104.995 50.7146C104.236 50.0332 103.431 49.3544 102.777 48.5675C102.847 48.3631 102.83 48.3526 103.017 48.2523C106.014 48.8849 109.066 49.6669 111.904 50.848L118.034 53.6622C113.685 49.7606 109.395 45.4728 106.425 40.3945C105.684 39.1283 105 37.8427 104.402 36.5023L103.901 35.3324C103.838 35.1701 103.749 34.8252 103.638 34.7015C103.572 34.627 103.326 34.5436 103.222 34.4914L101.698 33.7248C98.6291 32.1935 95.3645 30.9118 92.0382 30.07C89.6926 29.4764 87.3483 29.1164 84.9607 28.7643L87.692 44.536L88.2559 47.7154C88.2911 47.9113 88.4501 48.4002 88.4187 48.5734C88.4185 48.5751 88.3184 48.7167 88.3071 48.7326L83.9294 54.5568L83.8149 54.5486L83.8002 54.5503C83.7219 53.2863 83.3773 51.9385 83.1559 50.6852L81.7782 42.9183L77.4702 18.4632Z" fill="#272727"/>
<path d="M104.492 49.2463C105.932 49.5542 107.351 49.995 108.753 50.4445C109.83 50.7898 110.912 51.1186 111.953 51.5676L118.158 54.4798C116.992 54.8676 115.672 55.047 114.446 54.9841C111.178 54.8166 108.601 53.1014 106.252 50.9429C105.649 50.3886 105.042 49.8565 104.492 49.2463Z" fill="#AB8264"/>
<path d="M113.596 64.2347L113.671 64.2688C115.129 64.9314 116.555 65.6448 117.845 66.6044C120.782 68.788 122.316 71.9308 123.581 75.2753L121.589 74.4696C118.616 73.0748 116.716 70.577 115.206 67.7442C114.6 66.6083 114.038 65.445 113.596 64.2347Z" fill="#AB8264"/>
<path d="M114.08 71.776L116.534 74.3535C119.671 77.7125 122.703 81.6269 122.984 86.4091C122.952 86.4352 122.912 86.4486 122.875 86.4667C121.613 85.4154 120.395 84.3419 119.33 83.0836C116.587 79.8435 115.044 75.8675 114.08 71.776Z" fill="#AB8264"/>
<path d="M109.059 56.0758C111.315 56.8015 113.78 57.505 115.847 58.6789C118.358 60.1059 120.39 62.6277 121.884 65.0613L121.142 64.9628C119.732 64.7496 118.337 64.4465 117.028 63.8597C113.546 62.2997 111.261 59.056 109.059 56.0758Z" fill="#AB8264"/>
<path d="M128.801 56.3987C128.984 57.0317 129.08 57.7221 129.204 58.3715C129.537 60.1063 129.773 61.8462 129.798 63.6153C129.822 65.1976 129.671 66.8669 129.083 68.3473C128.442 69.9581 127.348 71.3139 126.157 72.5471L126.067 72.5683L126.001 72.5051C125.965 69.9959 125.795 67.5271 126.175 65.0305C126.628 62.0553 127.867 59.2426 128.801 56.3987Z" fill="#AB8264"/>
<path d="M123.328 44.8638C123.375 44.9513 123.405 45.0292 123.439 45.1228C124.885 49.0865 125.938 53.9617 125.023 58.1543C124.674 59.7495 124.046 61.1892 123.364 62.6623C123.291 62.8027 123.341 62.7468 123.219 62.8336L122.487 59.8173C122.191 58.5056 121.885 57.185 121.759 55.8432C121.602 54.1694 121.71 52.4581 122.026 50.8096C122.409 48.8099 122.991 46.8826 123.328 44.8638Z" fill="#AB8264"/>
<path d="M104.538 35.1401C105.477 35.7665 106.508 36.2791 107.491 36.8344C109.325 37.8705 111.205 39.0327 112.811 40.3995C115.142 42.3831 116.941 45.205 117.61 48.2118C117.919 49.6035 118.011 51.0333 118.126 52.4509L118.12 52.7223L118.041 52.7533C115.308 50.1727 112.566 47.5899 110.192 44.6639C107.9 41.8385 105.9 38.5222 104.538 35.1401Z" fill="#AB8264"/>
<path d="M71.8787 56.9306C71.6828 56.9129 65.9039 53.0846 65.3694 52.7294L61.8159 32.8363L57.706 35.2297C54.1949 37.503 51.0212 40.2116 48.1596 43.2598L46.9777 44.5515C46.8852 44.6556 46.6716 44.8371 46.6249 44.9501C46.5859 45.0446 46.6125 45.2956 46.6056 45.4134L46.511 46.6403L46.1333 49.5826C45.8078 51.5924 45.296 53.5839 44.6864 55.5245C43.8003 58.3452 42.5991 60.9786 41.3144 63.6327C40.6289 65.049 39.8514 66.4925 39.2754 67.9558C41.8511 64.5232 45.5456 61.4341 49.1693 59.1943C50.1646 58.579 51.1353 57.9814 52.2282 57.5519C51.9659 58.2005 51.4805 58.8443 51.112 59.4406C49.5734 61.9303 48.0372 64.3941 45.8689 66.3919C43.7864 68.3108 41.8479 69.1162 38.9904 68.9889C38.3744 70.7529 38.0654 72.3325 38.0075 74.1979C37.9922 74.6922 37.9485 75.2388 38.0009 75.7294L38.491 79.3678C38.9174 77.3375 39.5824 75.1252 40.6557 73.346C41.7001 71.6147 43.275 70.175 44.7807 68.8529C46.4026 67.4287 48.0302 66.1101 49.8393 64.9272L48.4333 68.7541C47.7731 70.5239 47.1175 72.2647 46.2402 73.9422C45.2752 75.7871 43.9369 77.6699 42.19 78.836C41.1148 79.5536 39.9131 79.9922 38.6891 80.3758L39.9572 87.9923C40.1438 88.8588 40.2833 89.8246 40.6829 90.6219C40.5771 87.1906 41.2427 83.7582 42.9952 80.7774C43.6182 79.7176 44.3811 78.721 45.0815 77.7109L47.6771 73.9085C47.7852 76.2953 47.6841 78.5 47.2662 80.8574C46.7775 83.614 45.9074 86.2489 44.1272 88.4547C43.2171 89.5821 42.08 90.546 40.8966 91.3707C40.8917 91.6392 41.136 92.0749 41.2323 92.3376C41.8658 94.067 42.5963 95.7584 43.4078 97.411C43.7598 98.1278 44.0962 98.8834 44.5376 99.5493L44.3736 98.8072C43.8149 96.2492 44.0162 93.5381 44.8723 91.0733C45.5054 89.2502 46.4651 87.4985 47.303 85.7638C48.0262 84.2669 48.6774 82.6498 49.5787 81.2545C50.0063 84.3709 50.0705 87.3914 49.8605 90.5288C49.6003 94.4165 48.2747 98.0657 45.2998 100.678C45.8722 101.937 46.6239 103.117 47.371 104.277C48.4106 105.891 49.497 107.486 50.8389 108.865C50.4226 107.335 49.8313 105.921 49.5693 104.341C48.9887 100.838 49.8758 97.077 50.8822 93.7423C51.1342 92.9071 51.3618 92.0445 51.7085 91.244L51.8241 91.5348C52.8712 94.6501 53.4746 97.6926 53.405 100.991C53.3782 102.262 53.278 103.586 52.9631 104.819C52.5647 106.379 51.8948 107.845 51.183 109.282C52.5391 110.737 53.9085 112.075 55.4815 113.299C56.7039 114.249 58.0157 115.067 59.3288 115.883C59.0857 115.172 58.5498 114.432 58.1605 113.79C57.7573 113.125 57.3877 112.43 57.0533 111.727C54.9914 107.396 54.8025 102.535 55.2683 97.8431C55.4311 97.969 55.5495 98.2225 55.661 98.3964L56.6389 99.9893C58.9968 103.999 60.8622 108.724 60.4588 113.464C60.3778 114.416 60.1563 115.336 59.9202 116.259C63.3818 118.124 66.9346 119.609 70.7688 120.515L73.3542 121.071L75.1602 121.365C75.5324 121.412 76.0981 121.406 76.4281 121.571C76.6117 121.663 76.6352 121.795 76.6924 121.977C76.627 122.107 76.6364 122.177 76.4891 122.222C76.0162 122.366 74.9538 122.103 74.4583 122.029C70.5671 121.448 66.8801 120.321 63.2861 118.729C62.083 118.196 60.8503 117.648 59.7197 116.972C57.1151 115.415 54.6807 113.743 52.4663 111.651C50.3154 109.619 48.4859 107.279 46.8264 104.834C44.2319 101.013 42.1677 97.0298 40.6127 92.6776C40.24 91.6347 39.8449 90.5963 39.5722 89.5216L38.061 88.9362C34.8618 87.5157 32.4606 85.139 31.1963 81.8417C30.5933 80.269 30.2866 78.6008 30.0646 76.9368C29.8788 75.5439 29.7367 74.1735 29.7139 72.7669C29.7088 72.45 29.6177 71.7892 29.7599 71.5108C29.8268 71.3797 29.9088 71.3991 30.0424 71.3611C30.0902 71.3844 30.1511 71.3908 30.1861 71.4312C30.3386 71.6073 30.4754 71.9824 30.5916 72.1979L31.5584 73.8467C33.0219 76.1305 34.9086 78.0768 36.1302 80.5213C37.4149 83.0915 38.0155 85.9822 39.2821 88.5593C39.2661 88.0541 39.0994 87.4912 39.0082 86.9915L38.44 83.7176L37.9247 79.8277C37.8771 79.497 37.8704 79.0345 37.7652 78.7246C37.7386 78.646 37.5388 78.5096 37.4779 78.4599L36.3552 77.5061C35.6158 76.8116 34.9748 76.0376 34.3783 75.2184C31.6954 71.5334 31.0098 67.167 30.8764 62.7171C30.8346 61.3241 30.7881 59.8536 30.9981 58.475C31.2723 58.8742 31.4503 59.3326 31.6566 59.7694L32.7118 61.9524C34.4825 65.5032 36.517 68.8315 37.3471 72.7626C37.5193 71.8431 37.6889 70.9264 37.9433 70.0251L38.4209 68.5678C38.4732 68.4018 38.5875 68.1424 38.5998 67.9735C38.6094 67.8412 38.442 67.4708 38.399 67.3298L37.9523 65.6555C37.1777 62.2403 37.1717 58.4477 38.2371 55.103C39.0666 52.4987 40.6561 50.1317 42.5782 48.213C43.168 47.6242 43.8633 47.1144 44.4298 46.5133C44.8406 46.0773 45.2031 45.5489 45.5854 45.0834L47.692 42.6856C51.7196 38.3758 56.4522 34.7845 61.6967 32.0989L59.8621 21.5883L65.4776 20.6035L71.8787 56.9306Z" fill="#272727"/>
<path d="M50.2413 59.3284L50.3159 59.3224L50.3525 59.3784C49.2742 61.1246 48.1779 62.8862 46.8214 64.4318C45.6878 65.7236 44.24 67.1495 42.6127 67.795C41.8135 68.1119 41.0664 68.2186 40.2126 68.2703L39.9503 68.2638L39.9443 68.1628C42.0025 65.6952 44.3385 63.4826 46.9166 61.5642L50.2413 59.3284Z" fill="#AB8264"/>
<path d="M46.9639 76.1338C47.2119 76.5131 46.977 77.9331 46.9306 78.4279C46.6089 81.8536 45.7857 85.4393 43.5182 88.1218C42.8659 88.8936 42.102 89.5416 41.3272 90.1839C41.2515 89.0467 41.378 87.8466 41.565 86.725C41.922 84.5851 42.6531 82.7006 43.7701 80.8416C44.7421 79.2233 45.9313 77.7173 46.9639 76.1338Z" fill="#AB8264"/>
<path d="M31.5379 61.1535C32.096 62.0488 32.5187 63.0939 33.0108 64.034C34.2532 66.4069 35.6208 68.8972 36.3592 71.481C36.7224 72.7519 36.9242 74.0973 37.1702 75.395L37.4371 76.8126C37.4841 77.0631 37.5642 77.3272 37.5253 77.582L37.1274 77.251L36.4088 76.5826C32.2199 72.462 31.5858 66.7236 31.5379 61.1535Z" fill="#AB8264"/>
<path d="M48.4368 66.7142C48.2907 67.277 48.0316 67.8447 47.8291 68.3925L46.7344 71.2574C45.5378 74.0466 44.149 76.7536 41.5092 78.4293C40.7683 78.8996 39.9694 79.227 39.1577 79.5499C39.5101 77.8131 40.0211 75.9521 40.8592 74.3883C41.8253 72.5856 43.2637 71.1276 44.772 69.7767L48.4368 66.7142Z" fill="#AB8264"/>
<path d="M30.3992 73.3888C31.3122 75.0089 32.6153 76.4309 33.7079 77.9314C34.5026 79.0231 35.1994 80.1533 35.763 81.3822C36.3202 82.5972 36.7369 83.8693 37.2002 85.1214L37.8833 86.9103C38.0443 87.3211 38.2466 87.7366 38.3103 88.1762L38.1447 88.1805C37.0808 87.7666 36.0737 87.1807 35.2172 86.4212C31.3818 83.0206 30.6854 78.2539 30.3992 73.3888Z" fill="#AB8264"/>
<path d="M49.1185 83.5635C49.2725 84.4387 49.3141 85.3224 49.3223 86.2099C49.3542 89.6819 49.2851 93.4511 47.6274 96.5875C46.9945 97.7852 46.1782 98.785 45.2378 99.7478C44.6642 97.2148 44.5163 94.6381 45.2449 92.1202C45.7279 90.4504 46.5188 88.8962 47.2858 87.345L49.1185 83.5635Z" fill="#AB8264"/>
<path d="M45.7168 46.2666L45.8453 46.282C45.4808 50.4058 44.4611 54.5903 42.9083 58.4276C41.7434 61.3063 40.3119 64.0403 38.9745 66.8379C38.3125 64.3633 38.0341 61.9613 38.1605 59.399C38.365 55.2517 40.1749 51.6473 43.0401 48.7193C43.883 47.8579 44.8251 47.0784 45.7168 46.2666Z" fill="#AB8264"/>
<path d="M79.1137 60.4731L79.7773 60.4584C80.68 60.5602 81.529 60.8704 82.2202 61.478C83.2061 62.3448 83.5057 63.5363 83.6009 64.7926C86.7582 64.8133 90.0718 65.7633 92.8698 67.1933C98.4231 70.0317 102.415 74.7294 104.319 80.6832C105.52 84.4398 105.724 88.5995 104.749 92.4276C104.314 94.1374 103.625 95.7821 102.82 97.3471C100.984 100.915 98.0126 104.216 94.5944 106.317C92.8507 107.388 91.0036 108.154 89.0598 108.771L89.6486 111.928C90.622 112.002 91.5283 112.136 92.4292 112.533C94.5406 113.463 96.3432 115.16 97.187 117.342C98.0681 119.621 97.9783 122.009 96.9946 124.226C96.1221 126.192 94.3475 127.787 92.3626 128.563C90.5399 129.277 88.4342 129.278 86.5815 128.671C84.5129 127.994 82.687 126.43 81.7085 124.48C80.6875 122.445 80.4807 120.041 81.2043 117.874C81.9978 115.497 83.7697 113.651 85.9866 112.552L85.4283 109.482C85.1463 109.446 84.8452 109.498 84.561 109.513L82.9371 109.542C80.4347 109.503 77.9567 108.998 75.6365 108.056C70.0386 105.783 65.4629 101.254 63.1203 95.6636C60.8548 90.2573 60.8536 84.0093 63.0593 78.5962C65.3608 72.9479 69.8128 68.585 75.403 66.2421L75.2607 65.6225C75.0696 64.4615 75.1853 63.2345 75.9028 62.2628C76.4321 61.5457 77.0402 61.1054 77.8371 60.731L78.2424 60.6257L79.1137 60.4731Z" fill="#272727"/>
<path d="M86.0506 109.39L88.3497 108.981L88.8716 111.896L86.6485 112.298C86.4995 112.158 86.1269 109.788 86.0506 109.39Z" fill="#EFE9E3"/>
<path d="M78.4697 61.3047C78.7596 61.2268 79.0264 61.1767 79.3257 61.1674C80.2112 61.1401 81.1769 61.4529 81.8149 62.0845C82.5719 62.8341 82.877 63.7813 82.8973 64.8229L79.9158 65.0242C79.1565 65.1399 78.39 65.316 77.6482 65.5141L76.5661 65.8231C76.4707 65.8511 76.275 65.9402 76.1831 65.9359C76.1354 65.9336 76.0953 65.8983 76.0513 65.8795L75.984 65.7096C75.6874 64.8804 75.8372 63.7937 76.2294 63.0301C76.6944 62.1246 77.5353 61.6172 78.4697 61.3047Z" fill="#EFE9E3"/>
<path d="M104.124 82.5404C105.406 88.2231 104.218 94.0118 101.144 98.9066C98.2147 103.573 93.4595 107.192 88.0476 108.408C82.6545 109.619 76.934 108.528 72.2869 105.544C68.4442 103.077 65.23 99.3176 63.6073 95.0223C63.0927 93.6601 62.756 92.2349 62.4425 90.8152L63.7992 91.5519C64.0886 91.6929 64.43 91.8116 64.689 92.001L64.7325 92.1828C66.0534 96.6202 68.3949 100.364 72.1268 103.141C72.8695 103.693 73.6367 104.233 74.46 104.658C79.0039 107.006 84.2259 107.742 89.136 106.13C94.033 104.523 98.102 100.935 100.455 96.362C102.059 93.2443 102.801 89.8207 102.662 86.316C102.634 85.6093 102.636 84.8208 102.42 84.1442C102.748 83.5599 103.211 82.9301 103.796 82.5884L104.003 82.5815L104.124 82.5404Z" fill="#AB8264"/>
<path d="M102.42 84.1443C102.636 84.8209 102.634 85.6093 102.662 86.3161C102.801 89.8208 102.059 93.2444 100.455 96.3621C98.102 100.935 94.0329 104.523 89.136 106.13C84.2258 107.742 79.0038 107.006 74.46 104.658C73.6367 104.233 72.8695 103.693 72.1268 103.141C68.3949 100.364 66.0534 96.6203 64.7324 92.1829L64.689 92.0011L66.9663 93.0628C67.2709 93.1994 67.7679 93.3409 68.0282 93.533C68.1446 93.6191 68.3834 94.3407 68.4692 94.5084C68.9644 95.4775 69.5111 96.4216 70.1574 97.2981C74.4783 103.158 81.9793 105.751 88.8639 103.199C89.4641 102.976 90.0566 102.723 90.6232 102.425C90.7073 102.381 90.9214 102.299 90.9685 102.22C91.5593 101.993 92.174 101.538 92.6854 101.167C93.8811 100.301 95.1855 99.2944 96.0812 98.1131C96.4805 97.7778 96.802 97.2811 97.0997 96.8523C98.5952 94.699 99.6089 92.1682 100.029 89.5777C100.09 89.1969 100.153 88.8096 100.181 88.4246C100.207 88.0738 100.146 87.5238 100.283 87.2081C100.42 86.8961 100.716 86.5696 100.914 86.2873L102.42 84.1443Z" fill="#AB8264"/>
<path d="M87.6111 113.535C89.3248 113.093 91.1675 113.352 92.7101 114.21C94.3795 115.138 95.6307 116.701 96.1476 118.543C96.6662 120.391 96.4993 122.451 95.518 124.125C94.5023 125.858 92.8939 127.069 90.9549 127.569C89.3171 128.045 87.3625 127.73 85.8731 126.934C84.2138 126.047 82.962 124.444 82.424 122.648C81.8854 120.851 82.0821 118.818 82.9928 117.172C84.0468 115.268 85.5483 114.135 87.6111 113.535Z" fill="#EFE9E3"/>
<path d="M87.5197 114.176C88.9347 113.712 90.6386 113.907 91.9725 114.538C93.521 115.271 94.8736 116.685 95.4553 118.309C96.0937 120.091 95.9429 121.861 95.1407 123.551C94.3514 125.213 92.8285 126.283 91.1369 126.875C89.4286 127.336 87.686 127.208 86.1171 126.349C84.6329 125.536 83.4624 124.156 82.9888 122.519C82.4598 120.691 82.708 118.915 83.618 117.263C84.4628 115.731 85.8491 114.652 87.5197 114.176Z" fill="#272727"/>
<path d="M62.1394 88.719C61.6826 83.0816 63.5997 77.316 67.2422 73.0113C69.6146 70.2076 72.5321 68.1225 75.9541 66.8018C77.4174 66.237 79.0595 65.7591 80.6322 65.6391C82.3825 65.5056 84.1096 65.4739 85.855 65.7111C89.9419 66.2665 93.9354 68.0741 97.0643 70.7754C100.623 73.8478 103.03 77.9801 104.124 82.5404L104.003 82.5816L103.796 82.5884C103.211 82.9301 102.748 83.56 102.42 84.1442L100.914 86.2873C100.716 86.5696 100.42 86.8961 100.283 87.2081C100.146 87.5238 100.207 88.0738 100.181 88.4246C100.153 88.8095 100.09 89.1968 100.029 89.5777C99.6089 92.1682 98.5952 94.699 97.0998 96.8523C96.802 97.281 96.4805 97.7778 96.0812 98.1131C95.1856 99.2944 93.8812 100.301 92.6855 101.167C92.174 101.538 91.5593 101.993 90.9685 102.22C90.9214 102.299 90.7073 102.381 90.6232 102.425C90.0566 102.723 89.4641 102.976 88.8639 103.199C81.9793 105.751 74.4784 103.158 70.1574 97.298C69.5112 96.4216 68.9644 95.4775 68.4693 94.5084C68.3834 94.3406 68.1446 93.619 68.0282 93.533C67.7679 93.3408 67.2709 93.1993 66.9663 93.0628L64.689 92.0011C64.43 91.8116 64.0885 91.693 63.7992 91.5519L62.4425 90.8152L62.2865 89.9383L62.1394 88.719Z" fill="#EFE9E3"/>
<path d="M62.1393 88.719C63.7433 89.7504 65.5915 91.0754 67.4354 91.5892L67.8291 92.845C65.944 91.9044 64.0136 91.1824 62.2864 89.9383L62.1393 88.719Z" fill="#AB8264"/>
<path d="M83.8099 96.5207C84.0614 96.3348 85.8479 96.1279 86.2883 96.0599L87.1155 100.692C87.2461 101.425 87.4672 102.234 87.4949 102.974L87.1274 103.12L85.0523 103.482L83.8099 96.5207Z" fill="#AB8264"/>
<path d="M75.2406 101.166L72.9587 99.395L77.7845 94.6639C78.4774 95.1865 79.2176 95.6038 79.9824 96.0087L75.2406 101.166Z" fill="#AB8264"/>
<path d="M89.6663 94.2426L89.7398 94.1786C90.3691 93.6221 90.9586 92.8531 91.3083 92.0901L97.4953 95.0041C97.241 95.7096 96.5151 96.7545 95.9961 97.27C95.3849 97.0739 94.7869 96.7273 94.212 96.4383L91.2927 94.9728C90.7654 94.7098 90.2328 94.4078 89.6663 94.2426Z" fill="#AB8264"/>
<path d="M92.5805 87.1524L99.502 85.9276C99.5853 87.293 99.5406 88.518 99.311 89.8694L99.1405 90.7627C99.1196 90.77 99.0996 90.788 99.0776 90.7845C98.9426 90.7637 98.6782 90.5884 98.5467 90.524L97.1803 89.86L92.6107 87.8098L92.5805 87.1524Z" fill="#AB8264"/>
<path d="M68.1368 91.5133L72.9237 90.7137C73.5691 90.6056 74.4366 90.3482 75.08 90.3864L75.3105 91.0514L73.2248 93.0464L70.0665 95.9703C69.1735 94.5717 68.6218 93.0911 68.1368 91.5133Z" fill="#AB8264"/>
<path d="M75.4997 91.7871L75.5871 91.7679C75.9012 92.0486 76.1059 92.6026 76.3457 92.9649C76.6237 93.385 76.9415 93.7771 77.2565 94.1697L77.1275 94.3093C76.0754 95.4306 74.8934 96.4304 73.7989 97.5106C73.5968 97.7102 72.6651 98.7503 72.4736 98.8245C72.4169 98.8465 72.3523 98.828 72.2915 98.8298L70.4627 96.5715L75.4997 91.7871Z" fill="#AB8264"/>
<path d="M92.5114 88.5599L98.9442 91.4653L97.902 94.1736C97.8365 94.3323 97.8851 94.263 97.7539 94.3799L91.6922 91.4565C92.0631 90.5195 92.3202 89.5483 92.5114 88.5599Z" fill="#AB8264"/>
<path d="M81.8793 75.6902L80.4947 67.7264C81.674 67.6031 82.8286 67.4982 84.0159 67.5552C88.2624 67.759 92.3041 69.4801 95.5804 72.1544C97.8967 74.0453 99.9982 76.7805 101.16 79.5496C101.652 80.72 101.972 81.9043 102.248 83.1392C101.819 84.3064 100.767 85.2593 100.163 86.3415C99.9159 81.8959 97.7728 77.701 94.4826 74.7348C91.8895 72.3971 88.807 71.0007 85.3734 70.4717C84.3926 70.3205 83.4226 70.2101 82.4277 70.2523L82.2899 70.2605L83.4666 77.0127L83.6894 78.1946L82.3223 78.2667L81.8793 75.6902Z" fill="#AB8264"/>
<path d="M64.4286 83.5892C64.489 83.0172 64.6636 82.4212 64.8127 81.867C65.2793 80.1324 65.9984 78.4834 66.9358 76.9536C69.169 73.3095 72.4785 70.237 76.5049 68.6972C77.5131 68.3116 78.587 68.0757 79.6343 67.8243L80.1087 70.5117L81.5136 78.3931C81.3055 78.4649 80.3776 78.8737 80.2563 78.8261L78.8351 70.8122C74.5677 72.192 70.7935 75.3332 68.7563 79.3462C67.3163 82.183 66.7243 85.1741 66.846 88.3523C66.8658 88.8674 66.9245 89.3776 66.9989 89.8872C67.0391 90.163 67.118 90.4719 67.1073 90.7476C66.5388 90.4627 65.845 90.1969 65.3299 89.8334L64.2066 89.2048C64.0359 87.3415 64.0323 85.4246 64.4286 83.5892Z" fill="#AB8264"/>
<path d="M81.323 79.5356C83.0884 79.0617 85.0178 79.1611 86.6941 79.9203C88.6357 80.7995 90.3297 82.6129 91.0707 84.6201L91.117 84.748L91.1668 84.8766C91.8687 86.71 91.6285 89.085 90.8217 90.8493C89.8254 93.028 88.2709 94.5545 86.0262 95.3797C84.127 96.0245 81.9978 95.8745 80.1888 95.0026C78.2254 94.0561 76.7106 92.3638 76.0178 90.2893C75.2571 88.0112 75.4328 85.5667 76.5198 83.434C77.493 81.5243 79.3135 80.1764 81.323 79.5356Z" fill="#AB8264"/>
<path d="M82.4156 81.3521L84.8087 85.1397C85.3012 85.319 88.5443 84.6987 89.2017 84.5967L89.2051 84.6439L86.3349 87.9148L88.1582 91.7062L84.3145 90.2026L84.1307 90.1508C83.7126 90.3776 83.3282 90.7943 82.9769 91.1142L80.7676 93.1025L81.1871 88.9443C81.06 88.7818 80.8321 88.694 80.6533 88.5945L79.2092 87.8217L77.3984 86.756L81.6282 85.7204C81.7347 84.2838 82.1563 82.7772 82.4156 81.3521Z" fill="#EFE9E3"/>
</svg>
