<svg width="128" height="174" viewBox="0 0 128 174" fill="none" xmlns="http://www.w3.org/2000/svg">
<g clip-path="url(#clip0_1_834)">
<path d="M48.735 67.5351L47.7519 68.7774C46.4618 70.5206 45.5061 72.7005 45.852 74.9106C46.0452 76.1454 46.5884 77.2331 47.624 77.9765C48.6826 78.7365 50.0197 79.0438 51.3018 78.8174C53.2485 78.4737 55.072 76.9343 56.1697 75.348L56.809 74.3326C55.2643 74.065 53.7878 73.6361 52.8311 72.2891C52.2763 71.5081 51.9274 70.4633 51.7452 69.5329C51.6728 69.1626 51.5939 68.7801 51.6651 68.4036C51.782 67.7859 52.2676 67.3432 52.7775 67.0199C53.662 66.459 54.7665 66.2943 55.78 66.1168C57.0676 65.8913 58.3826 65.6186 59.6791 65.9371C60.2005 66.0652 60.7366 66.2562 61.032 66.7384C61.6447 67.7387 61.448 69.859 61.1471 70.9463C60.8285 72.0971 59.9379 73.1316 58.901 73.7095L58.1609 74.0713C59.8527 75.4416 62.157 76.6828 64.41 76.4423C65.6812 76.3066 67.0593 75.6739 67.8718 74.6604C68.6569 73.6809 68.9709 72.419 68.7948 71.1834C68.4789 68.9672 67.0049 67.2535 65.2477 65.9698L64.1795 65.2596C64.6332 65.3649 65.018 65.6444 65.4055 65.8923C65.8635 66.1853 66.3386 66.4701 66.7737 66.7964C68.435 68.246 69.516 69.8604 69.6375 72.1253C69.7125 73.5213 69.0832 74.9056 68.1414 75.9115C67.1275 76.9944 65.5876 77.6361 64.112 77.6599L62.8583 77.6655C62.4926 77.4844 61.8805 77.4473 61.471 77.3284C60.0253 76.9086 58.8284 76.1557 57.654 75.23C56.5105 77.2844 54.6215 79.1638 52.3091 79.8237C50.8142 80.2503 49.2211 80.0879 47.8728 79.3037C46.6375 78.5851 45.7369 77.3564 45.392 75.974C44.8948 73.9812 45.4179 71.8919 46.4431 70.1582C47.1546 69.3429 47.8366 68.1367 48.735 67.5351Z" fill="#272727"/>
<path d="M55.3058 47.2258L54.5344 47.2544C56.7181 46.3671 58.7757 46.3085 61.0936 46.4532C61.9652 43.1325 63.4307 39.9858 65.1537 37.0261C67.081 33.716 69.3624 30.5632 72.2338 28.0061C74.3027 26.1637 77.3972 23.8345 80.3405 24.0275C82.1231 24.1443 83.6569 24.8257 84.8803 26.1438C86.6396 28.0391 87.5712 30.5377 88.026 33.0495C88.7624 37.1166 88.398 41.2965 87.4771 45.3015C86.8705 47.9394 86.0367 50.5271 84.8975 52.9862C84.4015 54.0569 83.8898 55.1562 83.2878 56.17C82.079 58.2061 80.4296 59.9762 80.3492 62.4676C80.3053 63.8276 80.7762 65.2452 81.5665 66.347C82.1313 67.1346 82.9042 67.7277 83.6545 68.3278L85.7703 70.1093C87.4387 71.6143 88.9998 73.2212 90.5307 74.8645L86.5039 75.1976C87.352 76.6326 88.1795 78.0729 88.8865 79.584L89.4581 80.8525C89.5788 81.1287 89.6759 81.4371 89.9009 81.6476C92.1083 83.7138 94.5816 85.6777 97.4974 86.6288C99.2311 87.1944 101.163 87.3539 102.97 87.1766C104.819 86.9952 106.653 86.5185 108.503 86.2811C113.638 85.6223 119.187 86.2393 123.943 88.3082C130.679 91.238 135.37 97.4381 138.012 104.124C139.469 103.38 140.798 101.827 141.511 100.377C142.823 97.7072 142.611 94.2938 141.665 91.5437C140.18 87.2263 137.331 83.3002 133.148 81.2544C133.595 81.1256 134.179 81.1325 134.65 81.1243C136.699 81.089 138.911 81.5194 140.811 82.2861C146.445 84.5586 150.885 89.5047 153.23 95.0409C154.79 98.7245 155.66 102.594 155.589 106.601C155.557 108.453 155.306 110.453 154.602 112.177C153.482 114.919 151.786 116.857 149.043 117.999L149.351 118.411C150.044 119.258 150.892 119.673 151.965 119.797C151.617 120.28 151.192 120.682 150.644 120.928L150.534 120.976L150.312 121.078C148.523 121.801 146.328 121.367 144.63 120.633L144.991 121.427C145.617 122.642 146.54 123.165 147.794 123.562C147.45 123.819 147.109 124.027 146.701 124.166L146.603 124.199C146.206 124.336 145.801 124.413 145.381 124.441C143.598 124.562 142.276 123.824 140.981 122.694C141.083 127 140.69 131.264 139.912 135.499C139.59 137.255 139.27 139.361 138.23 140.852C137.881 141.353 137.307 141.82 136.748 142.076C135.777 142.521 134.374 142.585 133.319 142.765L127.68 143.735C127.615 143.352 127.515 142.935 127.535 142.546L127.542 142.448L127.573 142.032C127.771 140.107 129.128 138.717 130.566 137.563C127.908 132.72 124.274 127.535 119.137 125.113L119.367 126.139C119.824 128.442 119.836 130.856 119.702 133.19C119.569 135.521 119.297 137.768 118.791 140.049C118.454 141.571 118.063 143.233 117.174 144.541C116.821 145.061 116.277 145.549 115.693 145.789C114.933 146.101 113.819 146.178 112.996 146.33L106.516 147.513C106.344 146.834 106.245 146.24 106.366 145.543C106.656 143.87 108.07 142.539 109.392 141.608C109.595 141.05 109.621 140.286 109.622 139.693C109.631 136.766 108.205 134.181 106.185 132.146C105.695 132.299 105.021 132.908 104.572 133.214L101.787 135.011C99.7268 136.246 97.5765 137.327 95.3775 138.289C95.2027 138.797 95.1979 139.464 95.1213 140.003L94.6377 143.453C94.5211 144.319 94.4308 145.195 94.2197 146.044C93.8858 147.388 93.1374 149.165 91.8711 149.887L91.791 149.93C91.3281 150.188 90.7743 150.24 90.2587 150.338L87.8821 150.773L81.1015 151.988L80.9765 150.845C80.9061 149.602 81.7092 148.36 82.5401 147.503C82.8154 147.22 83.1444 146.968 83.3939 146.662C84.1346 145.755 83.4782 141.198 83.3545 139.885C79.6871 140.113 75.7694 139.758 72.155 139.09L72.286 145.416C72.2875 147.222 72.3841 149.043 71.8188 150.786C71.3677 152.177 70.4662 153.239 69.1823 153.916C68.6722 154.184 68.1011 154.238 67.5386 154.338L65.2244 154.744L59.0043 155.825C58.8983 155.572 58.8949 155.239 58.8755 154.965C58.761 153.337 59.9254 152.233 60.9112 151.109C61.1499 150.837 61.4563 150.547 61.5528 150.19C62.224 147.709 61.5402 144.581 60.2949 142.39C58.7123 139.604 55.9804 137.435 53.73 135.199C51.7822 133.264 49.8729 131.216 48.1516 129.075C45.038 125.204 42.3229 120.719 40.1035 116.283L38.4666 112.855C38.157 112.167 37.9102 111.455 37.5408 110.794L37.3374 110.893C37.0601 110.655 36.8883 110.144 36.7311 109.816C35.685 107.632 35.0142 105.385 34.7473 102.981L32.5127 106.249C31.4897 100.613 32.0397 94.67 33.6004 89.1813L30.3756 91.2277C30.6322 89.0362 30.9191 86.9777 31.5799 84.8622C31.3034 84.8678 30.9853 85.0013 30.718 85.0795C29.9384 85.3075 29.1864 85.5934 28.4314 85.8907C28.2326 82.6586 30.4354 79.2574 31.8902 76.5019C32.4452 75.4505 33.0782 74.4082 33.2814 73.2178C33.4997 71.9382 33.2262 70.357 32.4413 69.301C31.8617 68.5215 31.096 68.1295 30.2868 67.6287C29.6931 67.2614 29.1119 66.8545 28.5592 66.428C25.8352 64.3261 23.1862 61.6629 21.2127 58.8456C18.3861 54.8104 16.2219 50.5073 15.4084 45.614C15.1316 43.949 15.0056 42.179 15.3099 40.5092C15.6435 38.679 16.5074 36.7851 18.085 35.7099C20.1183 34.3242 22.8062 34.2711 25.1485 34.7217C31.6923 35.9808 37.5455 40.7307 41.8702 45.6045C42.9335 46.803 43.9695 48.011 44.8674 49.341C46.536 48.6371 48.0624 48.0446 49.8855 47.903C50.3002 47.8708 50.7335 47.8167 51.1478 47.865L50.6399 48.0536L49.402 48.3704C51.6107 52.3177 53.3158 57.7595 52.0318 62.255C51.4408 64.3247 50.2142 65.9081 48.8231 67.5037L48.7351 67.5351C47.8367 68.1366 47.1547 69.3428 46.4432 70.1582C45.4179 71.8919 44.8949 73.9811 45.392 75.9739C45.7369 77.3564 46.6375 78.5851 47.8728 79.3036C49.2211 80.0879 50.8142 80.2502 52.3092 79.8236C54.6215 79.1638 56.5106 77.2843 57.6541 75.2299C58.8285 76.1557 60.0253 76.9085 61.4711 77.3283C61.8805 77.4472 62.4926 77.4843 62.8583 77.6654L64.112 77.6599C65.5877 77.6361 67.1275 76.9943 68.1414 75.9115C69.0832 74.9056 69.7125 73.5212 69.6376 72.1252C69.5161 69.8603 68.435 68.2459 66.7738 66.7963C66.3386 66.4701 65.8636 66.1853 65.4055 65.8922C65.0181 65.6443 64.6332 65.3649 64.1796 65.2595L64.1572 65.2691C62.0141 64.2866 59.8196 62.8278 58.4339 60.9018C55.6801 57.0748 55.4619 51.6179 56.1827 47.1298L55.3058 47.2258Z" fill="#272727"/>
<path d="M66.9318 36.4627C68.9482 33.1306 71.548 29.8523 74.707 27.5362C75.9863 26.5982 77.4112 25.7888 78.959 25.3986C80.2383 25.0761 81.5998 25.2781 82.7252 25.9687C85.0049 27.3678 86.0886 30.1621 86.6556 32.6539C87.4578 36.1785 87.2066 39.9123 86.5524 43.4358C86.1397 45.6582 85.5835 47.8115 84.7285 49.9077C84.4559 50.135 84.2928 50.5024 84.1164 50.8068C84.0263 50.3834 83.867 49.7731 83.9366 49.3488C83.9735 49.1241 83.9848 48.9664 83.9723 48.7368L83.9664 48.6384L84.3142 47.2719C84.5557 46.9799 84.6195 46.5937 84.7708 46.2512C85.9771 43.5206 86.226 40.5016 86.1113 37.5412C85.9969 34.586 85.2054 29.7372 82.9289 27.6651C82.1031 26.9135 81.1013 26.4656 79.975 26.542C78.6512 26.6319 77.3776 27.3519 76.2876 28.0527C73.9571 29.5508 71.8049 31.4955 70.0911 33.6753L68.6549 35.6146C68.5112 35.8157 68.282 36.2554 68.0916 36.3947C67.8783 36.5508 67.257 36.4969 66.9956 36.47L66.9318 36.4627Z" fill="#EFE9E3"/>
<path d="M20.7116 56.0042C18.7988 52.6625 17.2403 49.2744 16.5796 45.455C16.2829 43.7399 16.178 41.9089 16.5558 40.1975C16.8785 38.736 17.6588 37.2354 18.9563 36.4173C20.8326 35.2343 23.3379 35.4541 25.4102 35.9121C27.5561 36.3863 29.6843 37.4027 31.5678 38.5188C36.6931 41.5559 41.0616 45.9066 44.2743 50.9161C44.0989 51.1145 43.6695 51.5177 43.4067 51.5636L43.3431 51.5656C42.5208 50.2095 41.466 48.9083 40.4434 47.6955C38.9719 45.9502 37.3576 44.1688 35.5288 42.7903C34.6364 42.0099 33.5847 41.3554 32.5863 40.7166C29.6605 38.8447 26.4238 36.9993 22.8707 36.8099C21.5803 36.741 20.2341 37.0325 19.2512 37.9129C18.034 39.0033 17.6853 40.8274 17.6128 42.39C17.4455 45.9957 18.8069 49.8573 20.2482 53.1086L21.4132 55.5325L20.7116 56.0042Z" fill="#EFE9E3"/>
<path d="M94.9721 131.383C95.0234 131.431 95.0489 131.481 95.0556 131.554C95.0851 131.874 94.9504 132.357 94.8979 132.68L94.483 135.282L93.4656 142.339C93.3033 143.429 93.2028 144.557 92.9395 145.626C92.7214 146.512 92.3938 147.441 91.8573 148.188C91.7045 148.4 91.4798 148.667 91.2373 148.781C90.9627 148.909 90.6103 148.944 90.3131 148.996L88.6389 149.286L82.5654 150.333L82.4338 150.246C82.4714 149.193 83.8795 148.189 84.4905 147.421C84.6843 147.178 84.8376 146.909 84.9113 146.605C85.065 145.973 84.9992 145.269 84.9809 144.624L84.697 140.317C86.079 138.88 87.4299 137.354 88.8874 135.994C90.6958 134.308 92.8378 132.62 94.9721 131.383Z" fill="#EFE9E3"/>
<path d="M115.67 124.745C116.444 124.555 117.031 124.542 117.797 124.778L118.1 126.099C118.886 130.691 118.489 135.609 117.448 140.125C117.169 141.339 116.87 142.765 116.13 143.793C115.895 144.118 115.638 144.358 115.264 144.513C114.493 144.834 113.503 144.9 112.678 145.046L107.742 145.915C107.71 145.837 107.695 145.821 107.695 145.737C107.695 144.674 109.045 143.607 109.76 142.997C110.013 142.781 110.336 142.543 110.53 142.272C110.84 141.836 110.898 141.019 110.936 140.485C111.191 136.892 109.524 133.906 107.243 131.285L110.634 128.499C112.217 127.084 113.595 125.436 115.67 124.745Z" fill="#EFE9E3"/>
<path d="M70.3769 138.673C70.5465 138.709 70.7083 138.739 70.8661 138.815C70.9718 139.939 70.9103 141.078 70.9302 142.206L70.9756 146.566C70.9743 147.561 71.0126 148.555 70.8108 149.536C70.6388 150.372 70.275 151.196 69.7441 151.867C69.4608 152.224 69.0233 152.557 68.5947 152.717C67.6841 153.056 66.5017 153.145 65.5405 153.319C63.7683 153.64 61.9693 154.043 60.1806 154.245C60.718 153.082 61.7702 152.346 62.4179 151.282C62.7369 150.759 62.882 150.106 62.9709 149.504C63.153 148.271 63.0635 147.039 62.849 145.816C62.5414 144.063 61.8985 142.404 60.906 140.92C59.3741 138.629 57.2017 136.805 55.2386 134.898C53.1538 132.874 51.0161 130.734 49.2819 128.4C49.7309 128.583 50.2102 129.016 50.6152 129.292L53.5009 131.197L58.591 134.187C59.4529 134.459 60.3023 134.963 61.1221 135.351L64.9585 137.008L68.4855 138.178C69.0867 138.347 69.814 138.434 70.3769 138.673Z" fill="#EFE9E3"/>
<path d="M58.5909 134.187C59.4529 134.459 60.3023 134.963 61.1221 135.351L64.9584 137.008L68.4854 138.178C69.0867 138.347 69.814 138.434 70.3769 138.673C70.0657 139.632 70.0125 140.822 69.1048 141.469C68.7765 141.703 68.6027 141.782 68.2113 141.717C67.7595 141.643 67.3791 141.47 66.9904 141.235C65.0729 140.077 63.3284 138.447 61.6247 136.999C60.627 136.151 59.3677 135.237 58.5909 134.187Z" fill="#AB8264"/>
<path d="M90.4249 93.9197L91.3666 94.9541C91.5706 94.5301 91.5663 93.8158 91.6099 93.3394C91.8939 90.2362 91.6333 86.9383 90.6073 83.9813C90.8827 84.1222 91.1652 84.417 91.4128 84.6132L92.7573 85.597C93.9002 86.3977 95.0637 86.9423 96.3121 87.5479L96.7856 88.967L97.8713 93.2042C99.9685 102.613 99.9683 112.524 98.4287 122.017L97.2533 127.771C97.058 128.597 96.7526 129.392 96.6209 130.233C96.3958 129.891 96.2488 129.711 95.8607 129.567C95.2409 129.604 94.6311 130.063 94.1065 130.374C92.0021 131.623 89.9309 133.244 88.1459 134.919L84.5109 138.614C84.2359 138.05 84.1529 137.373 83.8947 136.787C83.4903 135.869 83.0328 135.053 82.3404 134.316C80.4025 132.253 77.044 131.668 74.3371 131.594L74.4372 131.521C74.7063 131.295 74.9604 130.904 75.1821 130.627L77.0981 128.052C82.74 120.354 86.5475 111.512 88.9255 102.308L90.0826 96.6833C90.2254 95.7618 90.3882 94.8529 90.4249 93.9197Z" fill="#AB8264"/>
<path d="M20.7116 56.0041L21.4132 55.5325L20.2482 53.1086C18.8069 49.8572 17.4455 45.9957 17.6128 42.3899C17.6852 40.8274 18.034 39.0033 19.2512 37.9128C20.234 37.0325 21.5802 36.741 22.8707 36.8098C26.4238 36.9993 29.6604 38.8446 32.5862 40.7165C33.5846 41.3553 34.6364 42.0098 35.5287 42.7903C37.3575 44.1687 38.9718 45.9501 40.4433 47.6954C41.4659 48.9083 42.5207 50.2094 43.3431 51.5655L43.4067 51.5636C43.6695 51.5177 44.0989 51.1144 44.2742 50.916C44.5257 50.703 44.8964 50.5387 45.1831 50.3698C46.5339 49.5736 47.9574 48.9715 49.4019 48.3703C51.6107 52.3176 53.3157 57.7594 52.0318 62.2549C51.4407 64.3246 50.2142 65.908 48.8231 67.5036L48.735 67.5351C47.8366 68.1366 47.1546 69.3428 46.4431 70.1581C45.3785 69.9731 40.4275 72.847 39.3895 73.5764C37.4214 74.9593 35.6359 76.4459 34.1981 78.3927C33.7268 79.0308 33.2554 79.7061 32.9455 80.4405C32.6796 81.0709 32.5364 81.7662 32.3927 82.4329C32.7111 82.0247 33.0271 81.6042 33.4243 81.2683C34.7826 80.1204 36.597 79.428 38.1677 78.6239C37.7018 79.3478 37.2262 80.0767 36.8813 80.8679C36.1904 82.4529 35.9415 84.1877 35.9139 85.904C37.2574 84.1925 39.1141 82.9408 41.0103 81.9088C40.503 82.4328 39.9664 82.9495 39.5535 83.5533C38.5938 84.957 38.0847 86.9839 38.1172 88.6781C38.1377 89.7432 38.3706 90.7001 38.725 91.6968C38.7027 91.3029 38.6573 90.8773 38.7059 90.4855C38.8354 89.4443 39.4546 88.4651 40.137 87.6968C40.4821 87.3084 40.8662 87.0017 41.283 86.6918C40.5134 88.8872 40.6755 91.3096 41.6885 93.4103C42.7934 95.7018 44.9936 97.4562 47.0256 98.8995C49.4626 100.63 52.0503 102.108 54.7824 103.323C48.7364 102.387 42.8089 99.907 38.0268 96.0925C36.5675 94.9284 35.2712 93.7534 34.1573 92.2447C34.2165 91.6701 34.4194 91.0596 34.5717 90.5028C34.9333 89.1814 35.2964 87.8657 36.0288 86.6965C34.6826 87.2065 33.2499 87.9658 32.0154 88.7058C32.2724 86.7652 32.8023 84.7793 33.7843 83.0725L29.8858 83.9291C30.1202 82.5494 30.7814 81.3143 31.418 80.0849C32.3131 78.3564 33.3525 76.58 34.0529 74.7668C34.6669 73.1774 34.6998 71.2237 33.9894 69.6554C33.6696 68.9493 33.3238 68.3524 32.7335 67.8275C32.0274 67.1995 31.0794 66.7688 30.2983 66.2301C29.3459 65.5728 28.4386 64.8389 27.5604 64.0854C25.8145 62.5877 24.2068 60.8098 22.7855 59.0036C22.0352 58.0502 21.2853 57.0768 20.7116 56.0041Z" fill="#AB8264"/>
<path d="M46.118 53.2505C46.5841 53.1078 47.1023 53.0158 47.5873 53.0966C48.3099 53.217 49.0721 53.6249 49.4837 54.2446C49.7905 54.7068 49.9051 55.2616 49.7613 55.8006C49.5245 56.6883 48.8664 57.2125 48.0974 57.6283L47.8634 57.709C47.2917 57.9068 46.7075 57.9375 46.1224 57.7625C45.5117 57.5798 44.9142 57.1421 44.6225 56.5648C44.3906 56.1061 44.3501 55.436 44.5079 54.9536C44.777 54.1311 45.3825 53.6405 46.118 53.2505Z" fill="#EFE9E3"/>
<path d="M45.2408 59.2851C45.8863 59.107 46.5113 59.0401 47.1615 59.2426C48.0624 59.5233 48.8328 60.1766 49.2667 61.0146C49.6759 61.805 49.6977 62.7738 49.3918 63.6011C49.0348 64.5666 48.2595 65.207 47.3426 65.6056C46.4913 65.8507 45.776 65.8973 44.927 65.5716C44.0985 65.2541 43.4433 64.6412 43.0949 63.8185C42.7333 62.9652 42.7466 62.1246 43.1019 61.2694C43.515 60.275 44.2577 59.6763 45.2408 59.2851Z" fill="#272727"/>
<path d="M45.2404 60.2448C45.452 60.1993 45.6675 60.1658 45.8844 60.1936C46.2116 60.2357 46.4638 60.4215 46.6432 60.6927C46.8156 60.9532 46.8775 61.2984 46.7957 61.6011C46.6688 62.0703 46.3985 62.2716 45.9881 62.4956C45.8257 62.5227 45.6568 62.5511 45.4922 62.5311C45.1647 62.4911 44.8353 62.278 44.649 62.0076C44.4561 61.7275 44.3715 61.4587 44.4579 61.121C44.5664 60.6967 44.8943 60.4648 45.2404 60.2448Z" fill="#EFE9E3"/>
<path d="M32.1079 45.3775C32.946 44.2483 34.3218 43.4677 35.5287 42.7904C37.3575 44.1688 38.9718 45.9502 40.4433 47.6955C41.4659 48.9083 42.5207 50.2095 43.3431 51.5656C42.9472 51.5685 42.1004 52.2848 41.7825 52.5368C40.248 53.7523 38.9577 55.0642 37.8365 56.6733C37.3482 57.3742 36.8769 58.0983 36.4695 58.8493C35.5236 60.5939 34.5886 62.8881 32.7573 63.909L32.6451 63.9696C32.2387 64.1929 31.7708 64.3136 31.3044 64.3042C29.3325 64.2644 27.485 62.2598 26.2112 60.9347C25.1068 59.7858 24.0788 58.5378 23.2193 57.194C22.9813 56.8219 22.6169 56.3274 22.6263 55.8806C22.8799 55.2666 23.6372 54.7844 24.1753 54.4181C24.9953 53.8599 25.769 53.4347 26.7901 53.6386L26.8656 53.6541C27.8441 54.8895 28.7015 56.1036 29.9551 57.0906C30.4342 57.4179 30.9185 57.7865 31.4322 58.0544C32.5772 58.6512 34.0021 59.1108 35.2677 59.3763L35.9632 58.0066L37.8764 54.9734C37.8749 54.3525 37.6862 53.5168 37.4993 52.9225C36.4213 49.8149 34.4819 47.5735 32.1079 45.3775Z" fill="#AB8264"/>
<path d="M29.9552 57.0906C30.4343 57.4178 30.9186 57.7864 31.4323 58.0543C32.5773 58.6512 34.0022 59.1108 35.2678 59.3762L34.557 60.6458C33.1678 60.0205 31.9474 59.0188 30.8303 58.0029C30.5115 57.713 30.141 57.4913 29.9552 57.0906Z" fill="#AB8264"/>
<path d="M26.8657 53.6541C26.1049 52.3957 25.321 51.1491 24.6903 49.8184C23.8265 47.9964 23.2163 45.9918 22.8654 44.0083C22.724 43.2086 22.2842 40.9524 22.8011 40.3045C22.9259 40.148 23.1313 40.0448 23.3274 40.0323C23.7572 40.0048 24.3893 40.2992 24.7826 40.4619C27.5083 41.5904 29.9659 43.3626 32.1079 45.3774C34.4819 47.5735 36.4214 49.8149 37.4993 52.9225C37.6862 53.5168 37.8749 54.3525 37.8764 54.9733L35.9632 58.0065L35.2678 59.3762C34.0022 59.1108 32.5773 58.6512 31.4323 58.0543C30.9186 57.7864 30.4343 57.4178 29.9552 57.0906C28.7016 56.1035 27.8442 54.8894 26.8657 53.6541Z" fill="#EFE9E3"/>
<path d="M35.9632 58.0066C35.4286 57.2237 34.6329 56.5501 33.9123 55.9407L31.9595 54.3137L31.0928 53.6699C31.0295 53.624 30.8669 53.538 30.8304 53.481C30.8129 53.4534 30.8191 53.4168 30.8134 53.3847L37.0054 56.0447C36.7661 55.5993 36.5795 55.1251 36.275 54.7174C35.6986 53.9458 34.9226 53.312 34.1763 52.712C32.9618 51.7358 31.7693 50.8955 30.3879 50.1664C29.6355 49.7693 28.7357 49.4628 28.0425 48.9856C30.6578 49.4504 33.3309 50.6588 35.6427 51.9364C36.2227 52.2569 36.8389 52.5479 37.359 52.9619L37.437 53.0251L37.4993 52.9225C37.6862 53.5168 37.8749 54.3525 37.8764 54.9734L35.9632 58.0066Z" fill="#AB8264"/>
<path d="M96.312 87.548L97.5563 87.9674C98.6362 88.2301 99.7704 88.4788 100.885 88.5225C102.943 88.603 104.885 88.1051 106.892 87.7505C108.345 87.494 109.791 87.3437 111.266 87.3066C112.551 87.3445 113.837 87.3 115.12 87.4063C121.205 87.9101 126.562 90.2227 130.772 94.6788C138.296 102.644 140.062 114.064 139.758 124.609C139.635 128.889 139.286 133.301 138.187 137.453C137.92 138.461 137.658 139.729 136.87 140.469C136.652 140.672 136.396 140.837 136.114 140.935C135.425 141.175 134.555 141.237 133.832 141.361L128.911 142.184C129.182 140.239 130.63 139.244 131.993 138.024C132.043 137.979 132.271 137.799 132.279 137.764C132.336 137.527 128.893 132.349 128.381 131.673C125.99 128.514 121.874 123.961 117.759 123.418L117.341 123.378L117.205 123.365C115.129 123.2 113.185 124.378 111.681 125.693L107.213 129.628C104.765 131.638 101.997 133.462 99.2269 134.996C98.0495 135.648 96.8145 136.338 95.5486 136.798L96.1449 133.181C96.3198 132.203 96.5713 131.227 96.6209 130.233C96.7525 129.393 97.0579 128.597 97.2532 127.771L98.4286 122.017C99.9682 112.524 99.9684 102.613 97.8712 93.2042L96.7855 88.9671L96.312 87.548Z" fill="#AB8264"/>
<path d="M96.312 87.548L97.5563 87.9674C97.7516 88.961 98.0674 89.9252 98.3294 90.9028L99.1447 94.5024C99.5753 96.7602 99.96 99.0188 100.183 101.308C100.825 107.899 100.556 114.652 99.6133 121.199L98.5139 126.925C98.2978 127.9 98.0085 128.887 97.867 129.874C98.813 129.328 99.5771 128.422 100.384 127.687C102.75 125.53 104.985 123.199 107.011 120.717C109.737 117.376 112.176 113.701 114.479 110.059L116.688 106.311C117.005 105.757 117.291 105.103 117.685 104.604C117.785 111.163 119.721 117.619 124.553 122.286C127.435 125.07 131.133 127.273 134.863 128.693C135.852 129.07 136.826 129.444 137.857 129.689C137.968 129.313 137.954 128.853 137.99 128.461L138.18 125.383C138.556 117.066 137.356 108.337 133.322 100.954C130.284 95.3944 125.473 91.4538 119.383 89.6862L118.057 89.3566C117.624 90.3648 117.186 91.3752 116.574 92.2906C115.361 94.1062 113.521 95.5172 111.5 96.3205C109.191 97.2385 106.446 97.0657 104.185 96.0861C103.629 95.8453 103.098 95.5785 102.594 95.2427C104.777 95.8604 107.213 95.9585 109.404 95.3005C110.312 95.0278 111.152 94.5945 111.977 94.1342C114.056 92.9741 115.563 91.1801 116.65 89.0923L112.101 88.5543C111.517 89.282 110.944 90.0385 110.258 90.6746C108.816 92.0132 106.616 93.1858 104.646 93.4033C102.936 93.5921 101.534 93.2659 100.193 92.1608L99.6088 91.64C100.562 91.8578 101.499 92.0619 102.481 92.0768C104.435 92.1063 106.399 91.3987 108.038 90.37C108.771 89.9099 109.518 89.3287 110.1 88.6857C110.506 88.2369 110.84 87.74 111.266 87.3066C112.551 87.3445 113.837 87.3 115.12 87.4063C121.205 87.9101 126.562 90.2227 130.772 94.6788C138.296 102.644 140.062 114.064 139.758 124.609C139.635 128.889 139.286 133.301 138.187 137.453C137.92 138.461 137.658 139.729 136.87 140.469C136.652 140.672 136.396 140.837 136.114 140.935C135.425 141.175 134.555 141.237 133.832 141.361L128.911 142.184C129.182 140.239 130.63 139.244 131.993 138.024C132.043 137.979 132.271 137.799 132.279 137.764C132.336 137.527 128.893 132.349 128.381 131.673C125.99 128.514 121.874 123.961 117.759 123.418L117.341 123.378L117.205 123.365C115.129 123.2 113.185 124.378 111.681 125.693L107.213 129.628C104.765 131.638 101.997 133.462 99.2269 134.996C98.0495 135.648 96.8145 136.338 95.5486 136.798L96.1449 133.181C96.3198 132.203 96.5713 131.227 96.6209 130.233C96.7525 129.393 97.0579 128.597 97.2532 127.771L98.4286 122.017C99.9682 112.524 99.9684 102.613 97.8712 93.2042L96.7855 88.9671L96.312 87.548Z" fill="#EFE9E3"/>
<path d="M66.9318 36.4627L66.9955 36.4701C67.257 36.497 67.8783 36.5509 68.0916 36.3948C68.282 36.2555 68.5112 35.8158 68.6549 35.6147L70.0911 33.6754C71.8049 31.4956 73.957 29.5509 76.2876 28.0528C77.3776 27.352 78.6512 26.632 79.975 26.5421C81.1013 26.4657 82.1031 26.9136 82.9289 27.6652C85.2054 29.7372 85.9968 34.5861 86.1112 37.5413C86.226 40.5017 85.9771 43.5207 84.7708 46.2513C84.6195 46.5938 84.5557 46.98 84.3141 47.272L83.9663 48.6384L83.9722 48.7369C83.9848 48.9664 83.9735 49.1242 83.9366 49.3489C83.867 49.7732 84.0262 50.3835 84.1163 50.8069C84.2928 50.5025 84.4559 50.1351 84.7285 49.9078L84.713 49.9913C84.6115 50.4978 84.4164 50.9748 84.2365 51.4573C83.6415 53.0529 82.8043 54.6148 81.8886 56.0495C81.0953 57.2926 80.1303 58.5654 79.5841 59.9425C79.055 61.2762 78.956 62.858 79.2851 64.2498C79.4779 65.0648 79.7579 65.8706 80.217 66.5765C80.5946 67.1571 81.0338 67.6647 81.5391 68.1368C82.322 68.8683 87.7035 73.154 87.7187 73.839C87.0462 73.8549 86.3754 73.8133 85.7096 73.7153C85.1697 73.6359 84.5428 73.472 83.9964 73.506C84.5977 74.4001 85.2232 75.3029 85.6764 76.2837C87.1752 78.92 88.6583 81.7849 89.5015 84.7044C90.1838 87.0662 90.4472 89.5612 90.3868 92.0117L90.3576 92.0478C89.0808 90.6778 87.7494 89.3763 86.2478 88.2518C87.1565 92.2869 86.6768 96.1351 85.4775 100.059L83.205 96.3375C82.968 95.953 82.7409 95.4174 82.4302 95.0975C82.3802 98.632 81.9433 102.053 80.6817 105.376C80.2962 106.392 79.7916 107.376 79.3271 108.359L77.3533 103.433L77.2382 103.5C77.1371 104.494 77.3775 105.452 77.5946 106.413C77.7236 106.983 77.828 107.597 78.0427 108.14L78.971 111.148C79.5382 110.54 79.9656 109.767 80.3756 109.048C82.1514 105.935 83.1316 102.744 83.5422 99.1897C84.2886 100.361 85.0587 101.689 85.5932 102.968C86.0299 102.298 86.3139 101.508 86.5905 100.763C87.7348 97.6785 88.1119 94.5519 88.0419 91.2783L89.4743 92.8238C89.7987 93.1726 90.1728 93.5162 90.4248 93.9197C90.3881 94.853 90.2253 95.7619 90.0826 96.6834L88.9255 102.308C86.5474 111.512 82.7399 120.354 77.0981 128.052L75.1821 130.627C74.9603 130.904 74.7063 131.295 74.4372 131.521L74.3371 131.594L74.1091 131.9L74.1415 131.996C74.6947 131.958 75.2588 132.078 75.7975 132.196C76.8984 132.437 77.997 132.795 78.9983 133.316C81.2469 134.486 82.4179 136.234 83.1501 138.597C81.9671 138.714 80.7097 138.631 79.5228 138.571C77.5608 138.47 75.5895 138.313 73.6468 138.017C67.1059 137.018 60.9301 134.213 55.3209 130.793C53.3344 129.582 51.3638 128.315 49.503 126.917L47.4585 125.362C47.1145 125.101 46.657 124.827 46.4115 124.476C45.0617 122.545 43.8969 120.529 42.7497 118.475C41.4278 116.107 40.1911 113.707 39.1245 111.213L38.5804 109.87C38.5251 109.724 38.4001 109.485 38.406 109.328C38.4247 108.833 38.7824 108.111 38.9696 107.645C39.3114 108.535 39.6005 109.435 40.0055 110.301C41.2465 112.953 43.1341 115.342 45.2871 117.309L45.8838 114.364C46.7515 115.559 47.6154 116.726 48.6222 117.811C51.1921 120.582 54.1886 122.64 57.5043 124.406L57.5638 124.369C53.9196 121.975 50.6448 118.863 48.0932 115.329C47.0264 113.852 46.0655 112.323 45.3553 110.641L44.5065 114.786C41.6362 111.541 40.1403 107.813 39.1763 103.644C38.3611 105.063 37.8518 106.582 37.4536 108.16C37.1693 107.819 36.9909 107.145 36.8523 106.718C36.3577 105.194 36.0555 103.669 36.0123 102.064L36.063 99.0894L33.4445 102.777C33.1899 99.1935 33.4539 95.7699 34.1573 92.2448C35.2712 93.7535 36.5675 94.9285 38.0268 96.0925C42.8089 99.9071 48.7364 102.387 54.7824 103.323C52.0503 102.108 49.4626 100.63 47.0256 98.8996C44.9936 97.4563 42.7934 95.7019 41.6885 93.4104C40.6755 91.3097 40.5134 88.8872 41.283 86.6919C40.8662 87.0017 40.4821 87.3085 40.137 87.6969C39.4546 88.4651 38.8354 89.4443 38.7059 90.4856C38.6573 90.8774 38.7027 91.3029 38.725 91.6969C38.3707 90.7002 38.1377 89.7433 38.1172 88.6782C38.0847 86.9839 38.5938 84.9571 39.5535 83.5534C39.9664 82.9496 40.503 82.4329 41.0103 81.9089C39.1141 82.9409 37.2574 84.1926 35.9139 85.9041C35.9415 84.1878 36.1904 82.453 36.8814 80.8679C37.2262 80.0768 37.7018 79.3478 38.1677 78.624C36.597 79.4281 34.7826 80.1205 33.4243 81.2684C33.0271 81.6042 32.7111 82.0248 32.3927 82.433C32.5364 81.7663 32.6796 81.071 32.9455 80.4406C33.2554 79.7062 33.7268 79.0309 34.1981 78.3928C35.6359 76.446 37.4214 74.9593 39.3895 73.5765C40.4275 72.8471 45.3785 69.9732 46.4431 70.1582C45.4179 71.8919 44.8948 73.9812 45.392 75.974C45.7369 77.3564 46.6375 78.5851 47.8728 79.3037C49.2211 80.0879 50.8142 80.2503 52.3091 79.8237C54.6215 79.1638 56.5105 77.2844 57.654 75.23C58.8284 76.1557 60.0253 76.9086 61.471 77.3284C61.8805 77.4473 62.4926 77.4844 62.8583 77.6655L64.112 77.6599C65.5876 77.6361 67.1275 76.9944 68.1414 75.9115C69.0832 74.9056 69.7125 73.5213 69.6375 72.1253C69.516 69.8604 68.435 68.246 66.7737 66.7964C66.3386 66.4701 65.8635 66.1853 65.4055 65.8923C65.018 65.6444 64.6332 65.3649 64.1795 65.2596L64.1571 65.2692C62.0141 64.2866 59.8196 62.8278 58.4339 60.9018C55.6801 57.0749 55.4619 51.618 56.1826 47.1299C57.3281 47.1273 58.4564 47.1191 59.5967 47.2502C60.4176 47.3446 61.2566 47.5696 62.0765 47.5999C63.2294 43.6947 64.6065 39.846 66.9318 36.4627Z" fill="#EFE9E3"/>
<path d="M54.2912 80.2053C54.1037 79.9808 54.0229 79.8507 53.9726 79.5609L54.0757 79.4439C55.6974 80.3594 57.2896 80.7249 59.1189 80.2074C59.821 80.0087 60.4729 79.7215 61.0598 79.2856C61.4105 79.025 61.7306 78.7163 62.0264 78.3954C62.263 78.1387 62.5074 77.7522 62.8583 77.6655L62.9753 77.7926C62.5901 79.0423 61.8062 80.023 60.6474 80.6509C59.2478 81.4094 57.4529 81.6476 55.9283 81.1596C55.3316 80.9686 54.7284 80.6619 54.2912 80.2053Z" fill="#272727"/>
<path d="M78.0427 108.14C77.7776 108.539 77.6115 109.02 77.4011 109.452L75.9881 112.326C75.1587 113.958 74.2302 115.515 73.2437 117.057C71.9589 119.063 70.6271 120.933 68.9408 122.624L68.8935 122.594C72.6658 117.635 75.3215 111.519 76.6779 105.452L77.1022 102.978L77.1911 102.982L77.3532 103.433L77.2382 103.5C77.1371 104.494 77.3775 105.452 77.5946 106.413C77.7235 106.983 77.828 107.597 78.0427 108.14Z" fill="#AB8264"/>
<path d="M66.9318 36.4626L66.9956 36.47C67.2571 36.4969 67.8784 36.5508 68.0917 36.3947C68.282 36.2554 68.5112 35.8157 68.655 35.6146L70.0911 33.6753C71.805 31.4955 73.9571 29.5508 76.2876 28.0527C77.3777 27.3519 78.6513 26.6319 79.975 26.542C81.1014 26.4656 82.1032 26.9135 82.929 27.6651C85.2054 29.7371 85.9969 34.586 86.1113 37.5412C86.226 40.5016 85.9771 43.5206 84.7708 46.2512C84.6196 46.5937 84.5557 46.9799 84.3142 47.2719L83.9664 48.6383L83.9723 48.7368C83.9848 48.9663 83.9735 49.1241 83.9367 49.3488C83.8671 49.7731 84.0263 50.3834 84.1164 50.8068C84.2928 50.5024 84.4559 50.135 84.7285 49.9077L84.713 49.9912C84.6115 50.4977 84.4164 50.9747 84.2366 51.4571C83.6415 53.0528 82.8043 54.6147 81.8886 56.0494C81.0953 57.2925 80.1304 58.5653 79.5841 59.9424C79.0551 61.2761 78.956 62.8579 79.2852 64.2497C79.478 65.0647 79.7579 65.8705 80.2171 66.5764C80.5946 67.157 81.0338 67.6646 81.5392 68.1367C82.3221 68.8682 87.7035 73.1539 87.7187 73.8389C87.0462 73.8548 86.3755 73.8132 85.7097 73.7152C85.1697 73.6358 84.5429 73.4719 83.9964 73.5059C84.5978 74.4 85.2233 75.3028 85.6765 76.2836C85.4987 76.905 85.6068 77.7191 85.5523 78.369C85.4439 79.6611 85.1509 80.9329 84.7808 82.1728C82.2218 90.7435 74.8299 97.3285 67.1809 101.448L69.4661 99.1995C71.4587 97.0979 73.299 94.8605 74.9023 92.448C75.9799 90.8264 76.9854 89.0884 77.5947 87.2293C78.431 84.6779 78.1342 82.6179 76.9319 80.2374C78.4437 81.0277 79.4824 82.3509 80.3446 83.7821C80.3263 82.4073 80.2487 81.057 79.7394 79.7619C78.8457 77.4893 77.0643 76.4471 74.937 75.5362C77.5793 75.6867 80.127 75.9809 82.529 77.1835C82.1929 76.4921 81.862 75.7794 81.4215 75.1472C80.4858 73.8045 79.1114 72.7687 77.6443 72.0683C78.5106 72.1495 79.3545 72.2232 80.2126 72.3821C81.7981 72.6756 83.4489 73.1518 85.0675 73.1524C84.4989 72.1688 83.7605 71.379 82.875 70.6715C81.857 69.858 80.6995 69.3067 79.497 68.8186C76.1529 67.4612 72.471 66.8336 68.8735 66.779C68.1838 66.7685 67.4591 66.7196 66.7738 66.7963C66.3386 66.47 65.8636 66.1852 65.4055 65.8922C65.0181 65.6443 64.6332 65.3648 64.1796 65.2595L64.1572 65.2691C62.0141 64.2865 59.8196 62.8277 58.4339 60.9017C55.6801 57.0748 55.4619 51.6179 56.1827 47.1297C57.3282 47.1272 58.4564 47.119 59.5968 47.2501C60.4177 47.3445 61.2567 47.5695 62.0766 47.5998C63.2294 43.6946 64.6066 39.8459 66.9318 36.4626Z" fill="#AB8264"/>
<path d="M60.3815 50.6722C61.0673 50.4882 61.8206 50.5278 62.4874 50.7736C63.0724 50.9892 63.6391 51.4441 63.8889 52.0246C64.1044 52.5253 64.0912 53.1112 63.8745 53.6083C63.5379 54.3809 62.946 54.8369 62.1943 55.1555C61.6171 55.3044 61.0285 55.3991 60.4423 55.2348C59.7583 55.0429 59.0978 54.5914 58.7521 53.9601C58.4911 53.4837 58.4995 52.8996 58.6786 52.4034C58.976 51.5795 59.625 51.05 60.3815 50.6722Z" fill="#EFE9E3"/>
<path d="M64.0769 55.9725C64.6389 55.8525 65.2405 55.8669 65.788 56.0465C66.6299 56.3226 67.4514 56.9712 67.8276 57.7855C68.2209 58.6368 68.2398 59.4517 67.8983 60.3177C67.5223 61.2705 66.8313 61.7772 65.93 62.1817C65.0891 62.4355 64.3607 62.4515 63.5432 62.0698C62.7243 61.6875 62.0754 60.9808 61.7859 60.1234C61.5095 59.3049 61.6069 58.335 62.0107 57.5796C62.4611 56.7364 63.1868 56.261 64.0769 55.9725Z" fill="#272727"/>
<path d="M63.5604 57.015L64.0022 56.9348C64.3182 56.8912 64.564 56.967 64.8097 57.172C65.0762 57.3942 65.2027 57.6703 65.2072 58.0199C65.2136 58.4997 64.8964 58.8244 64.5683 59.1256C64.3751 59.1769 64.1612 59.2487 63.9594 59.2398C63.6762 59.2274 63.3955 59.0761 63.2071 58.8682C62.9858 58.6242 62.8847 58.284 62.9136 57.9552C62.9527 57.5107 63.2312 57.2761 63.5604 57.015Z" fill="#EFE9E3"/>
<path d="M83.9663 48.6384C83.6851 49.2531 83.5314 49.9774 83.3002 50.6185C82.9316 51.6412 82.4339 52.6292 81.8736 53.5595C81.4141 54.3222 80.9264 55.0649 80.1827 55.5793C79.169 56.2805 78.0409 56.2391 76.9509 55.7378C75.7833 55.2009 74.8265 54.1409 73.8518 53.3191C70.9358 50.861 67.4772 48.4473 63.6524 47.7751C64.617 43.8399 66.1748 40.1331 68.0861 36.5699L68.3722 36.5303C69.7105 36.4861 70.9741 36.9239 72.075 37.6649C71.1043 39.6927 70.2467 41.7027 69.8241 43.9269C69.6094 45.0569 69.5485 46.2024 69.4575 47.3468L69.2981 48.9794L70.9347 50.0871L71.2401 50.2964L72.8638 51.6062L75.0069 53.367C77.6388 50.4849 79.5247 47.2358 80.4185 43.4096L84.6183 44.4912L84.3141 47.272L83.9663 48.6384Z" fill="#AB8264"/>
<path d="M72.0751 37.6648C73.47 35.2673 74.9904 33.1031 77.1087 31.2856C77.6936 30.784 78.2928 30.2729 78.965 29.8918C79.9865 31.845 80.6642 34.1002 80.8068 36.3044C80.9638 38.7334 80.8077 41.0114 80.4186 43.4095C79.5247 47.2357 77.6389 50.4848 75.0069 53.3669L72.8638 51.6062L71.2401 50.2963L70.9348 50.087L69.2981 48.9793L69.4575 47.3467C69.5486 46.2023 69.6094 45.0568 69.8242 43.9268C70.2468 41.7027 71.1043 39.6926 72.0751 37.6648Z" fill="#EFE9E3"/>
<path d="M71.2401 50.2963C73.2135 48.2039 75.3109 46.596 77.9113 45.353C77.3663 45.8582 76.7554 46.289 76.1973 46.7801C74.7027 48.0952 73.5981 49.7681 72.8638 51.6062L71.2401 50.2963Z" fill="#AB8264"/>
<path d="M69.4575 47.3467C70.1572 46.4256 70.8431 45.4888 71.6481 44.6551C72.0898 44.1976 72.599 43.8099 73.0886 43.4052C74.8851 41.9205 76.8365 40.7145 79.0078 39.8593C75.4636 42.1269 72.0385 45.1656 71.0506 49.4408L70.9347 50.087L69.2981 48.9793L69.4575 47.3467Z" fill="#AB8264"/>
</g>
<defs>
<clipPath id="clip0_1_834">
<rect width="150" height="150" fill="white" transform="translate(0 26.0472) rotate(-10)"/>
</clipPath>
</defs>
</svg>
