<svg width="150" height="163" viewBox="0 0 150 163" fill="none" xmlns="http://www.w3.org/2000/svg">
<path d="M129.89 42.1652C130.095 42.0902 130.225 42.0114 130.443 42.044L130.421 42.129C130.327 42.5365 130.69 42.9394 130.397 43.2751L130.27 43.3014C130.022 42.9842 130.024 42.5378 129.89 42.1652Z" fill="#915E36"/>
<path d="M139.61 115.58C139.832 115.494 139.932 115.47 140.163 115.534C140.337 115.698 140.423 115.776 140.428 116.026C140.432 116.206 140.365 116.288 140.248 116.414C140.07 116.507 139.975 116.534 139.777 116.498C139.613 116.396 139.514 116.329 139.46 116.128C139.389 115.867 139.467 115.78 139.61 115.58Z" fill="#272727"/>
<path d="M26.8379 95.8065L27.3071 95.7295C27.6501 95.7001 27.9232 95.8333 28.1704 96.0637C28.4083 96.2854 28.5604 96.5454 28.5521 96.8812C28.5416 97.3096 28.2577 97.6051 27.9539 97.8647L27.3604 97.9904C27.0978 98.0083 26.8314 97.8913 26.6439 97.7102C26.3691 97.4443 26.2472 97.0412 26.2717 96.6656C26.2993 96.242 26.5248 96.061 26.8379 95.8065Z" fill="#EFE9E3"/>
<path d="M121.1 26.7803C121.331 26.757 121.589 26.7602 121.808 26.8418C122.088 26.9457 122.334 27.1874 122.443 27.467C122.557 27.7622 122.543 28.0921 122.421 28.3817C122.279 28.7155 122.04 28.8888 121.715 29.0228C121.576 29.0557 121.432 29.0875 121.289 29.069C120.94 29.0243 120.563 28.7207 120.381 28.4291C120.241 28.2047 120.185 27.8611 120.27 27.6072C120.415 27.1742 120.7 26.9646 121.1 26.7803Z" fill="#EFE9E3"/>
<path d="M27.7916 48.7823C28.1344 49.4608 28.4419 50.1802 28.8828 50.8013C30.1082 52.5273 31.691 52.6913 33.6338 53.0144C32.7299 53.4319 31.7606 53.8948 31.0422 54.6009C29.9207 55.7031 29.7431 57.2521 29.7074 58.7464C29.6538 58.7851 29.6891 58.7643 29.5946 58.795C29.2368 57.9941 28.8254 57.2283 28.2824 56.5359C27.1447 55.085 25.7738 54.8759 24.0514 54.671C24.1943 54.4706 24.877 54.238 25.1282 54.0929C25.5023 53.8768 25.8671 53.6186 26.1856 53.3258C27.4922 52.1248 27.7281 50.4612 27.7916 48.7823Z" fill="#EFE9E3"/>
<path d="M65.3788 55.3326C63.5285 48.5796 64.4276 41.3629 67.8927 35.2618C71.5222 28.8714 77.9038 24.3776 84.9338 22.5039C91.6664 20.7093 99.2288 21.7785 105.235 25.2889C111.36 28.8691 116.02 34.7527 117.799 41.6636C119.784 49.3712 118.538 57.2905 114.501 64.1289C114.026 64.9333 113.471 65.7062 112.923 66.4626C112.777 66.6648 112.303 67.185 112.256 67.4036C112.236 67.5011 112.319 67.7872 112.337 67.8947C112.41 68.3434 112.516 68.8075 112.547 69.2605L111.056 60.8075L111.83 64.8819C112.546 64.1317 113.097 63.1075 113.593 62.1997C115.823 58.1102 117.085 53.5437 117.023 48.8669C116.948 43.141 115.118 37.4805 111.57 32.953C111.083 32.3323 110.587 31.6392 110.021 31.0899L109.955 31.2055L109.942 31.2037C109.844 30.7965 109.606 30.403 109.399 30.0415C108.935 29.2341 108.441 28.4726 107.805 27.7867C105.876 25.7033 102.873 24.4437 100.082 24.1212C99.3063 24.0315 98.5406 24.0521 97.7636 24.0184C97.0718 23.712 96.0569 23.6526 95.2988 23.5696C91.1208 23.1117 86.6308 23.4562 82.6865 24.9847C77.8707 26.8507 73.8169 29.8942 70.7724 34.0763C70.0983 35.0021 69.3758 36.0169 68.9119 37.0618C68.8494 37.2026 68.759 37.6099 68.6788 37.6971C68.4587 37.8567 68.3622 38.168 68.254 38.4097L67.6188 40.0103C67.5358 40.2483 67.4106 40.5311 67.3874 40.7828C67.3814 40.8488 67.3916 40.8765 67.4052 40.9346C67.0912 41.3751 66.981 42.1144 66.8621 42.6402C66.2022 45.5616 65.9101 48.8156 66.4111 51.7876C66.5532 52.6306 66.7153 53.4453 66.9486 54.2675C67.013 54.4944 67.0645 54.8077 67.1954 54.9982L65.3788 55.3326Z" fill="#AB8264"/>
<path d="M121.011 117.041C123.032 114.501 124.931 111.953 126.47 109.082L127.365 107.228L127.893 105.899C127.957 105.731 128.031 105.441 128.167 105.324C128.435 105.092 128.92 104.905 129.237 104.733L132.331 103.076C135.052 101.652 137.835 100.134 140.25 98.2223C139.755 100.245 138.973 102.293 138.155 104.206C135.26 110.984 130.933 117.423 125.364 122.289C124.494 123.049 123.538 123.964 122.551 124.571L122.36 124.673C122.419 125.058 122.514 125.474 122.524 125.861L121.011 117.041Z" fill="#AB8264"/>
<path d="M109.955 31.2054L110.021 31.0898C110.587 31.6392 111.083 32.3322 111.57 32.953C115.118 37.4805 116.948 43.1409 117.023 48.8668C117.085 53.5437 115.822 58.1102 113.593 62.1997C113.097 63.1074 112.546 64.1317 111.83 64.8819L111.056 60.8074L110.146 55.6818L109.738 53.3922C109.577 52.4936 109.445 51.6874 108.972 50.884C108.16 49.5053 107.004 48.9543 105.515 48.5625L107.436 45.3198C109.719 41.0232 111.437 36.0499 109.955 31.2054Z" fill="#EFE9E3"/>
<path d="M117.583 97.8361L117.646 97.7931C117.911 97.5796 118.143 97.1784 118.351 96.8997L119.788 94.9527C122.018 91.6759 123.972 88.2706 125.558 84.6342C126.607 82.2302 127.45 79.764 128.272 77.2756C128.477 77.7602 128.553 78.2997 128.655 78.8137L129.1 81.1366C130.289 87.6426 130.321 94.2692 128.844 100.732C128.478 102.329 128.065 103.93 127.447 105.451C126.116 108.726 124.266 111.758 122.185 114.602C121.772 115.165 121.369 115.813 120.895 116.319L117.583 97.8361Z" fill="#AB8264"/>
<path d="M54.8128 136.363C54.6102 136.016 53.7596 135.788 53.37 135.627C51.0578 134.672 48.7125 133.521 46.5937 132.187C41.8716 129.213 37.5932 125.466 34.2547 120.983C33.4496 119.902 32.6395 118.786 31.9713 117.614C34.4172 118.492 37.1986 119.011 39.7814 119.239C41.0069 119.347 42.283 119.443 43.5136 119.406C43.6072 119.403 44.2718 119.334 44.3096 119.359C44.3738 119.402 44.5047 119.642 44.5563 119.714L45.3663 120.785C46.2073 121.852 47.1474 122.869 48.1006 123.838C48.9231 124.673 49.759 125.489 50.6708 126.229L53.3173 128.241C53.2815 128.03 53.2319 127.309 53.1339 127.156C53.0732 127.061 52.69 126.849 52.5877 126.773L50.8622 125.427C48.9089 123.827 47.2562 121.947 45.6922 119.975C43.7194 117.488 41.9585 114.744 40.6032 111.867C37.8668 106.059 36.5723 99.7515 35.9433 93.3957L38.6031 96.6899C41.6306 100.132 45.2802 103.192 49.2952 105.411L48.9849 103.391L50.0964 109.756L53.2524 127.51L53.4429 128.827L54.3614 133.948C54.5031 134.736 54.5849 135.601 54.8128 136.363Z" fill="#AB8264"/>
<path d="M68.6787 37.697C68.759 37.6098 68.8494 37.2025 68.9118 37.0617C69.3758 36.0169 70.0983 35.0021 70.7724 34.0762C73.8168 29.8942 77.8707 26.8507 82.6865 24.9846C86.6308 23.4561 91.1208 23.1116 95.2988 23.5695C96.0569 23.6526 97.0718 23.712 97.7635 24.0183C98.5406 24.052 99.3063 24.0314 100.082 24.1211C102.873 24.4436 105.876 25.7032 107.805 27.7866C108.441 28.4725 108.935 29.234 109.399 30.0415C109.606 30.4029 109.844 30.7964 109.942 31.2036L109.955 31.2054C111.437 36.0499 109.719 41.0231 107.436 45.3198L105.515 48.5625C107.004 48.9543 108.16 49.5053 108.972 50.884C109.445 51.6874 109.577 52.4936 109.738 53.3921L110.146 55.6818L111.056 60.8074L112.547 69.2604L117.583 97.8361L120.895 116.319L121.011 117.04L122.524 125.861C122.594 126.275 122.664 126.67 122.631 127.092L122.619 127.218C122.485 128.851 121.914 129.91 120.951 131.196L133.412 128.963L136.849 128.34C137.545 128.214 138.29 128.018 138.998 128.023C139.182 128.126 139.289 128.161 139.377 128.373C139.431 128.503 139.403 128.775 139.329 128.888C139.121 129.207 138.232 129.25 137.851 129.317L69.9745 141.278L50.7081 144.683L41.1992 146.358C41.0068 146.261 40.8896 146.2 40.8251 145.979C40.7566 145.745 40.8005 145.625 40.9084 145.42C41.3601 145.136 42.1193 145.098 42.6491 145.003L45.8615 144.428L58.3565 142.243C57.0749 141.61 56.1152 140.782 55.5116 139.454L55.46 139.338C55.0535 138.454 54.958 137.324 54.8128 136.363C54.5848 135.601 54.503 134.736 54.3614 133.948L53.4429 128.827L53.2523 127.51L50.0964 109.755L48.9849 103.391L44.0294 75.2449L42.6615 67.4688L42.2661 65.2012C42.1872 64.7459 42.0767 64.2761 42.0696 63.8127C42.0528 62.7121 42.3861 61.61 43.0077 60.7011C43.5503 59.9075 44.3763 59.2847 45.2763 58.954C46.0338 58.6756 46.8888 58.5903 47.6831 58.4505L51.6419 57.7581L65.3788 55.3325L67.1954 54.9982C67.0645 54.8076 67.013 54.4943 66.9486 54.2674C66.7153 53.4452 66.5532 52.6305 66.4111 51.7875C65.9101 48.8155 66.2022 45.5615 66.8621 42.6402C66.9809 42.1143 67.0912 41.375 67.4051 40.9345C67.3916 40.8764 67.3814 40.8488 67.3874 40.7827C67.4106 40.531 67.5358 40.2482 67.6188 40.0102L68.2539 38.4097C68.3622 38.1679 68.4587 37.8566 68.6787 37.697Z" fill="#272727"/>
<path d="M82.0078 51.1172C82.3302 50.9436 83.1999 51.1952 83.5613 51.252L86.3848 51.6592L84.5194 51.975L80.2681 52.727C80.7762 52.1371 81.4231 51.6308 82.0078 51.1172Z" fill="#EFE9E3"/>
<path d="M46.4882 61.9617C46.58 61.9549 46.528 61.9489 46.6391 62.0045L48.498 72.6161L47.1878 72.8507L47.0344 72.7762L46.0451 67.2651C45.8689 66.2646 45.4882 64.9858 45.611 63.9908L45.626 63.8838C45.7257 63.0811 45.9889 62.5767 46.4882 61.9617Z" fill="#AB8264"/>
<path d="M47.6234 73.7685L48.6732 73.5959C48.9274 75.0343 50.9984 86.1602 50.8783 86.4975L50.394 86.6053L49.5277 86.772L47.7801 76.9695L47.3868 74.7641C47.3393 74.4978 47.2046 74.0921 47.2931 73.8415L47.6234 73.7685Z" fill="#AB8264"/>
<path d="M56.5051 126.312L57.8802 126.035L59.4545 134.77L59.8911 137.222C59.9842 137.741 60.0502 138.279 60.2379 138.773C60.4713 139.389 60.9296 139.867 61.3696 140.341C60.8881 140.177 60.4428 139.938 60.0275 139.645C59.3971 139.199 58.884 138.56 58.6005 137.84C58.4142 137.367 58.3481 136.844 58.2604 136.346L57.8742 134.147L56.5051 126.312Z" fill="#AB8264"/>
<path d="M45.9934 59.7333L46.2198 59.6841L46.3375 59.7612L46.4798 60.5739C46.1168 60.9095 45.7385 61.1835 45.4455 61.5901C44.9184 62.3218 44.6509 63.2609 44.6196 64.1569C44.5861 65.1171 44.908 66.2366 45.0731 67.1831L46.1033 73.051L45.2551 73.2076L44.8661 73.2652L44.7746 73.1617L43.6249 66.6685L43.2723 64.6692C43.1956 64.2313 43.0772 63.7582 43.1309 63.3143L43.1457 63.2104C43.1951 62.8127 43.2659 62.4509 43.4177 62.0771C43.8949 60.9031 44.8638 60.2061 45.9934 59.7333Z" fill="url(#paint0_linear_1_780)"/>
<path d="M51.5604 111.772L52.9199 111.518L55.3861 125.491L54.0454 125.725L51.5604 111.772Z" fill="#AB8264"/>
<path d="M53.8667 111.326L55.2728 111.074L57.7225 125.065L56.3135 125.316L53.8667 111.326Z" fill="#AB8264"/>
<path d="M54.2319 126.741L55.555 126.503L56.7473 133.367L57.2525 136.281C57.3849 137.038 57.4844 137.867 57.8373 138.557C58.6096 140.065 59.9687 141.044 61.5508 141.561C61.4469 141.614 61.3807 141.633 61.2666 141.655C60.2675 141.849 58.9538 141.55 58.1244 140.968C57.3379 140.416 56.7803 139.658 56.421 138.771C56.2104 138.251 56.141 137.693 56.0442 137.144L55.6253 134.748L54.2319 126.741Z" fill="#AB8264"/>
<path d="M67.1954 54.9981C67.0645 54.8076 67.013 54.4943 66.9486 54.2674C66.7153 53.4452 66.5532 52.6305 66.4111 51.7875C65.9101 48.8155 66.2022 45.5615 66.8621 42.6402C66.9809 42.1143 67.0912 41.375 67.4051 40.9345C67.517 41.5334 67.6156 42.1155 67.8385 42.6851C68.1238 43.4145 68.4698 44.131 68.9323 44.7668C69.0425 44.9183 70.1397 46.1593 70.1403 46.1628C70.149 46.2133 69.9213 46.6757 69.8846 46.7617L68.9456 48.9836C68.2008 50.9038 67.7915 52.8537 67.5007 54.8831C67.3677 54.9868 67.353 54.9743 67.1954 54.9981Z" fill="#EFE9E3"/>
<path d="M49.6882 87.7303L51.1137 87.4811L55.1077 110.107L53.6849 110.361L49.6882 87.7303Z" fill="#AB8264"/>
<path d="M70.8809 46.8973C71.5425 47.3781 72.2042 47.8675 72.922 48.2625C75.3601 49.6051 78.1928 50.3638 80.9292 50.8082C80.5551 51.1179 80.1732 51.4258 79.826 51.7654L78.8929 52.6964C78.8033 52.7836 78.6471 52.9777 78.5431 53.0345C78.369 53.1295 77.7622 53.1647 77.545 53.2009L68.4943 54.7833C68.8512 51.932 69.7018 49.4993 70.8809 46.8973Z" fill="#EFE9E3"/>
<path d="M44.9625 74.2318L46.2999 73.9957L52.7426 110.525L51.4001 110.758L44.9625 74.2318Z" fill="#AB8264"/>
<path d="M68.6787 37.6971C68.759 37.6099 68.8493 37.2026 68.9118 37.0618C69.3758 36.0169 70.0983 35.0022 70.7724 34.0763C73.8168 29.8943 77.8707 26.8508 82.6865 24.9847C86.6308 23.4562 91.1208 23.1117 95.2988 23.5696C96.0569 23.6527 97.0718 23.7121 97.7635 24.0184C96.0414 24.2485 94.3232 24.6115 92.6866 25.2057C87.8969 26.9448 83.63 30.1105 79.9528 33.5841C78.1165 35.319 76.3402 37.188 74.8045 39.1974L70.5818 45.3493C69.4848 43.973 68.3953 42.4125 68.372 40.5759C68.3592 39.5801 68.4955 38.6736 68.6787 37.6971Z" fill="#EFE9E3"/>
<path d="M102.561 25.6786C104.031 26.171 105.318 26.8246 106.483 27.864C108.332 29.513 109.421 31.8285 109.539 34.2977C109.734 38.3478 107.872 42.5943 105.906 46.0385C105.423 46.8858 104.913 47.8384 104.252 48.5586C102.997 48.6758 101.746 48.9363 100.505 49.1562L94.6652 50.1942C93.4948 50.4028 92.306 50.6787 91.1239 50.7948C90.5407 50.8521 89.9319 50.822 89.3455 50.8288L83.1549 50.1831L94.1161 40.1988C96.3446 37.8787 98.5332 35.5363 100.25 32.7998C101.646 30.5732 102.614 28.3421 102.561 25.6786Z" fill="#EFE9E3"/>
<path d="M95.1016 25.4795C97.3133 24.9135 99.3722 24.9218 101.601 25.3304C101.641 25.8567 101.658 26.3787 101.597 26.9044C101.447 28.1903 101.012 29.293 100.45 30.4487C99.1385 33.1411 97.1843 35.4863 95.165 37.675C92.4833 40.5818 89.5871 43.2328 86.6233 45.847L83.427 48.6332C82.8846 49.1061 82.3713 49.6068 81.8061 50.0535L79.5236 49.5613L76.7528 48.8234C74.7658 48.197 72.996 47.3362 71.3757 46.0222L71.8397 45.1639C76.5913 37.1066 85.8734 27.8563 95.1016 25.4795Z" fill="#EFE9E3"/>
<path d="M73.4155 54.9528L73.5235 54.8352L73.6711 54.869C74.2278 54.8732 74.8058 54.7237 75.3527 54.6276L78.1707 54.1299L86.1056 52.7233L90.3054 51.9873L100.757 50.1571L103.321 49.712C103.83 49.6253 104.418 49.492 104.931 49.5115C105.718 49.5415 106.416 49.8014 107.057 50.2516C107.748 50.7369 108.293 51.4355 108.539 52.2479C108.776 53.0262 108.865 53.9124 109.009 54.7173L109.883 59.6078L112.871 76.5487L118.147 106.297L121.633 126.039C121.86 127.436 121.604 128.694 120.769 129.842C120.153 130.689 119.276 131.326 118.275 131.648C117.787 131.805 117.2 131.856 116.692 131.944L113.562 132.488L102.588 134.434L65.2112 140.967L50.7497 58.955L65.8906 56.2926L71.1502 55.3759C71.8566 55.2533 72.7574 55.2151 73.4155 54.9528Z" fill="#EFE9E3"/>
<path d="M73.4155 54.9528L73.5235 54.8352L73.671 54.869C74.2278 54.8732 74.8057 54.7236 75.3527 54.6276L78.1706 54.1299L86.1055 52.7233L90.3054 51.9873C90.1165 52.9323 90.1047 54.0576 90.5316 54.9422L90.5874 55.0534C91.6632 57.2571 94.6137 57.8857 96.6725 58.8335C97.9684 59.43 99.2583 60.1424 100.41 60.983C102.564 62.5541 104.682 64.3425 105.105 67.1243C105.554 70.0755 103.894 72.3536 102.253 74.6047C100.856 73.2824 99.3674 72.0809 97.734 71.0597C92.7697 67.9563 86.6732 66.6749 80.8763 67.4684C79.4988 67.657 78.1035 67.9779 76.7909 68.4344C76.5367 68.5228 75.9192 68.8513 75.6882 68.7252C74.8528 68.269 74.0542 67.5298 73.3425 66.9022C70.0202 63.9724 67.4632 60.4493 65.8906 56.2926L71.1502 55.3758C71.8566 55.2532 72.7574 55.215 73.4155 54.9528Z" fill="#AB8264"/>
<path d="M80.6079 72.5998L80.6131 72.5973C86.2767 71.2497 92.7263 72.4911 97.6959 75.4143C103.199 78.6512 107.332 83.7542 108.92 89.9858C110.466 96.0536 109.731 102.838 106.471 108.244C103.102 113.831 97.3653 117.871 91.0648 119.445L90.3677 119.616C84.6156 120.978 78.4332 119.843 73.4224 116.724C67.7373 113.184 63.9109 107.849 62.4101 101.313C60.9853 95.1067 62.3368 88.4247 65.7027 83.0742C68.9976 77.8368 74.5994 73.9751 80.6079 72.5998Z" fill="#272727"/>
<path d="M97.5787 107.499C98.6386 107.795 99.6966 108.133 100.704 108.578C101.81 109.065 102.86 109.672 103.94 110.212C101.913 112.729 99.5952 114.633 96.795 116.229C95.2902 117.039 93.7785 117.669 92.1526 118.188C92.7159 117.499 93.2935 116.804 93.7903 116.065C95.5638 113.428 96.7492 110.555 97.5787 107.499Z" fill="#EFE9E3"/>
<path d="M78.6802 74.1247L78.8758 74.0805C78.8834 74.1055 78.9069 74.1307 78.8989 74.1555C78.8392 74.3414 78.3195 74.7963 78.1716 74.9602C77.8952 75.2661 77.6516 75.5891 77.4161 75.9265C75.5448 78.6058 74.3229 81.9417 73.595 85.1141C73.3348 85.1209 72.9784 84.9441 72.7319 84.8565C71.8116 84.5295 70.9193 84.1768 70.0403 83.7486L67.4346 82.2845C67.8208 81.6258 68.3986 81.0043 68.9123 80.441C71.5592 77.5394 74.9482 75.3457 78.6802 74.1247Z" fill="#EFE9E3"/>
<path d="M84.5245 73.0741C85.6242 72.9695 86.7329 73.0531 87.8286 73.1641C91.7168 73.5583 95.1987 74.8342 98.456 76.9665L96.7094 78.9408L93.4777 81.7268C91.2867 78.2848 88.2372 74.8803 84.5245 73.0741Z" fill="#EFE9E3"/>
<path d="M78.0692 110.744C78.0955 110.747 78.1252 110.74 78.1481 110.754C78.2062 110.788 80.1647 113.46 80.4135 113.746C81.8983 115.453 83.5821 116.901 85.5008 118.098L87.4315 119.219C85.8943 119.302 84.4358 119.324 82.9045 119.125C79.5561 118.678 76.4073 117.475 73.5515 115.682C73.8596 115.025 74.3732 114.374 74.8334 113.815C75.7914 112.651 76.8379 111.615 78.0692 110.744Z" fill="#EFE9E3"/>
<path d="M87.9097 106.718C90.7074 106.314 93.9576 106.481 96.674 107.252C96.6629 107.649 96.4602 108.123 96.3405 108.508C95.7468 110.422 94.958 112.259 93.9975 114.016C93.6075 114.719 93.1382 115.39 92.6672 116.04C91.9328 117.054 91.1363 118.072 90.0651 118.748L87.9097 106.718Z" fill="#EFE9E3"/>
<path d="M85.5112 107.135C85.9872 106.989 86.5265 106.929 87.0176 106.834L89.1407 118.852C87.547 118.225 86.1583 117.473 84.7574 116.499C82.3539 114.834 80.4195 112.534 78.8793 110.073C80.943 108.715 83.1097 107.73 85.5112 107.135Z" fill="#EFE9E3"/>
<path d="M80.9246 73.7984L81.1149 73.738C81.2571 73.8795 81.2523 74.1294 81.2876 74.3256L81.6334 76.2436L83.3219 85.8735C80.9572 86.1569 78.7042 86.1077 76.347 85.7885C75.7314 85.6811 75.0774 85.6059 74.4847 85.4085C74.5142 84.9837 74.6514 84.5611 74.763 84.1516C75.4875 81.4925 76.4961 78.8772 78.0724 76.6011C78.8326 75.503 79.7541 74.4671 80.9246 73.7984Z" fill="#EFE9E3"/>
<path d="M82.0352 73.3499L82.1772 73.3565L82.7974 73.4013C83.4141 73.5126 84.0593 73.8194 84.6142 74.1014C87.9838 75.8144 90.6557 79.1605 92.7579 82.2198L91.4626 83.0396C89.1588 84.3313 86.8185 85.1496 84.2446 85.7079L82.0352 73.3499Z" fill="#EFE9E3"/>
<path d="M74.3315 86.2846C77.4527 86.9746 80.3193 87.1809 83.4924 86.7355L85.0614 95.7147L83.1903 96.0433L74.2098 97.6358C73.5551 93.8591 73.6972 90.0542 74.3315 86.2846Z" fill="#EFE9E3"/>
<path d="M77.9112 97.8601L85.2241 96.5733L86.8653 105.926C85.2319 106.243 83.7291 106.655 82.173 107.249L78.3368 109.318C77.9208 108.683 77.5943 107.972 77.2571 107.293C75.8783 104.517 74.9024 101.567 74.3068 98.529L77.9112 97.8601Z" fill="#EFE9E3"/>
<path d="M93.0543 83.1823C93.1983 83.1247 93.1211 83.1432 93.2866 83.1315C95.2418 86.3079 96.5391 89.8906 97.235 93.5476C97.1062 93.6444 96.8768 93.649 96.7188 93.6767L95.2932 93.9252L88.2565 95.1519L85.9408 95.5561L84.3777 86.6182C85.5417 86.3609 86.7135 86.1024 87.8419 85.7135C89.6609 85.0865 91.4202 84.191 93.0543 83.1823Z" fill="#EFE9E3"/>
<path d="M90.5249 95.6369L97.3608 94.4718C98.0076 98.4307 97.8344 102.399 97.0095 106.319C96.5576 106.351 95.9186 106.133 95.4635 106.043C92.8592 105.561 90.3669 105.497 87.7406 105.809L86.1007 96.4447L90.5249 95.6369Z" fill="#EFE9E3"/>
<path d="M99.2114 77.482L99.4136 77.6082C100.466 78.3148 101.461 79.2361 102.342 80.1407C105.524 83.4061 107.397 87.1923 108.329 91.6267L102.529 92.6372L98.1257 93.4195C97.7658 91.3446 97.1938 89.2628 96.3926 87.3134C95.704 85.6377 94.8508 84.0743 93.9637 82.4989C95.9053 81.001 97.674 79.4005 99.2114 77.482Z" fill="#EFE9E3"/>
<path d="M66.8504 83.0401C67.5152 83.3584 68.1347 83.7775 68.7948 84.1112C70.2952 84.8697 71.824 85.49 73.407 86.0508C73.397 86.4554 73.288 86.8774 73.2323 87.2795L73.0105 89.289C72.7703 92.1615 72.8858 94.948 73.27 97.8022L69.056 98.5367L63.0171 99.6149C62.1466 93.997 63.486 87.6673 66.8504 83.0401Z" fill="#EFE9E3"/>
<path d="M63.1943 100.49L73.4034 98.6852C74.2005 102.673 75.6499 106.356 77.6486 109.888L75.2682 111.976C74.3168 112.979 73.5024 114.018 72.7329 115.164C71.5899 114.305 70.4497 113.443 69.4289 112.438C66.1577 109.219 64.0582 104.972 63.1943 100.49Z" fill="#EFE9E3"/>
<path d="M98.2719 94.3173L108.496 92.4835C108.997 95.9961 108.894 99.4819 107.82 102.892C107.381 104.287 106.781 105.598 106.126 106.902C105.626 107.814 105.088 108.664 104.444 109.482C102.269 108.347 100.241 107.243 97.834 106.633C98.0188 105.622 98.2491 104.623 98.3772 103.601C98.765 100.511 98.7078 97.3949 98.2719 94.3173Z" fill="#EFE9E3"/>
<defs>
<linearGradient id="paint0_linear_1_780" x1="42.8125" y1="67.5185" x2="48.2552" y2="65.5348" gradientUnits="userSpaceOnUse">
<stop stop-color="#C99463"/>
<stop offset="1" stop-color="#E3B585"/>
</linearGradient>
</defs>
</svg>
