<svg width="112" height="209" viewBox="0 0 112 209" fill="none" xmlns="http://www.w3.org/2000/svg">
<path d="M32.7056 28.8568C36.9432 29.5782 36.8766 27.8619 35.1067 26.143C33.5457 24.6242 30.6529 23.161 28.2789 22.5294C22.6116 21.0206 18.9874 22.5585 20.7434 25.9013C21.0978 26.5759 21.5985 27.2759 22.172 27.8973C22.4947 27.8556 22.8186 27.8227 23.1444 27.7961C23.0332 27.6531 22.9314 27.5075 22.8436 27.3632C22.161 26.2354 22.3655 25.1786 23.1615 24.4672C24.1776 23.5597 25.8668 23.3129 28.2277 23.9736C29.4223 24.3077 31.5376 25.2343 31.2338 26.038C31.09 26.419 30.3285 26.6341 29.5054 26.2848C28.2598 25.757 27.3289 25.4406 26.6744 25.2861C23.3354 24.4989 27.1356 27.9075 32.7056 28.8568ZM11.6419 102.079H8.2804C8.26587 100.55 8.16661 99.457 7.99117 98.794C7.70796 97.7615 7.1736 97.2489 6.3786 97.2489C5.64575 97.2489 5.11792 97.5801 4.79009 98.2436C4.53796 98.7717 4.40813 99.728 4.40813 101.114C4.40813 102.953 4.6367 104.369 5.10288 105.372C5.46279 106.126 6.26381 107.15 7.52449 108.461C9.07542 110.052 10.0995 111.317 10.5877 112.259C11.306 113.645 11.6654 115.635 11.6654 118.242C11.6654 120.918 11.2293 122.793 10.3662 123.871C9.89999 124.428 9.26589 124.873 8.44882 125.204C7.63878 125.536 6.76107 125.702 5.8212 125.702C2.91085 125.702 1.09928 124.286 0.381965 121.445C0.160907 120.563 0.0300766 119.071 0 116.983H3.36099C3.39156 119.131 3.52891 120.555 3.78154 121.264C4.15549 122.311 4.79761 122.831 5.71392 122.831C6.60768 122.831 7.20368 122.492 7.50143 121.813C7.83026 121.098 7.99819 119.937 7.99819 118.348C7.99819 116.523 7.83778 115.16 7.52449 114.241C7.2112 113.375 6.55454 112.417 5.55402 111.377C3.67478 109.403 2.6126 108.25 2.3755 107.911C1.71884 106.969 1.2677 105.997 1.03161 104.995C0.839625 104.129 0.740867 103.081 0.740867 101.861C0.740867 101.253 0.769945 100.684 0.823084 100.15C0.735362 97.7892 0.372441 95.3933 0.815064 93.3898C1.8647 88.6404 4.72543 85.5062 4.6723 78.9278C4.62217 72.7624 3.09331 64.1188 2.0211 57.1876C-0.173438 46.8036 3.53793 43.1861 7.23426 39.1067C10.3887 35.6246 9.76264 33.8969 12.9818 31.5275C13.4173 31.2072 13.8655 30.9047 14.3256 30.625C11.1105 24.5761 19.9784 16.2197 32.3637 22.7003C37.446 24.771 39.8712 29.0492 37.0826 31.7211C40.7012 33.7298 43.9208 33.721 47.0724 34.6627C49.915 32.7021 53.0384 33.6995 54.0008 34.2273C55.5473 30.6149 59.012 31.4743 59.2069 31.6059C59.3358 28.9618 62.6832 29.4124 63.2451 29.7491C62.6477 27.2961 65.2437 25.6608 66.6157 25.8405C65.9775 23.5989 67.6076 21.9763 69.2478 22.0358C68.2989 20.1739 69.6327 18.7702 71.6259 18.0221C70.537 16.4842 73.1121 15.1768 74.9844 14.0958C74.043 13.8085 73.6559 11.1631 79.054 7.28492C80.7082 6.09641 82.6236 3.56494 83.9876 1.85747C84.4307 1.12588 84.8432 0.662613 85.2648 0.380356C85.4647 0.19429 85.6111 0.11203 85.6968 0.153801C86.9119 -0.318321 88.298 0.438591 90.7185 0.565163C91.3872 0.599335 91.3025 0.00950623 92.5256 1.03854C94.3727 2.59412 98.3076 2.61817 99.4736 4.68637C103.527 11.8719 112.596 5.07495 111.969 14.1477C111.725 15.6717 111.503 17.0349 111.406 18.2664C110.942 24.1799 111.002 26.8455 106.892 28.1695C104.802 28.8428 102.697 28.4188 100.779 27.9088C99.5634 27.5847 97.9152 27.4075 96.7247 27.286C95.9512 27.2063 95.2996 27.6543 94.4786 28.8074C92.7988 31.1655 91.6539 35.5854 90.9426 37.0549C90.2228 38.4029 89.4664 39.5092 89.2915 41.0597C89.1219 42.5634 89.524 44.5126 89.3606 46.0365C88.9286 50.0565 89.7521 53.8891 88.942 57.6559C87.561 64.077 84.579 65.5351 84.5159 72.0473C84.4391 79.9202 86.7295 87.66 97.3307 94.9735H97.3723V97.9352H91.504V108.176H97.3723V111.136H91.504V122.146H97.7538V125.107H87.9901V95.7596C87.9901 94.7979 88.1003 93.5773 87.7961 92.6724C87.2046 90.9247 85.9635 91.5456 85.3936 93.4027C85.1309 94.2571 84.9881 95.5 84.9189 96.8435C84.7891 99.3641 85.1028 101.785 85.1028 104.286C85.1028 107.128 84.7053 109.208 83.9189 110.533C83.1855 111.739 82.2226 112.561 81.0316 113.005C80.4356 113.223 79.633 113.336 78.632 113.336H77.1347V125.107H73.6204V95.8393L73.6073 95.8408C72.495 77.5077 63.37 77.3925 61.4526 92.7421C61.1528 95.1406 60.7028 97.9223 60.8311 101.068L60.8301 101.065C60.8667 101.596 60.8867 102.169 60.8867 102.787C60.8867 105.53 60.4055 107.496 59.4506 108.688C58.9759 109.29 58.2431 109.75 57.2576 110.074C58.1056 110.315 58.7709 110.812 59.2521 111.581C59.6797 112.342 60.0155 113.186 60.2596 114.113C60.436 114.821 60.6266 115.68 60.8406 116.698L61.5975 120.45C61.795 121.55 62.2848 123.102 63.0787 125.107H59.5193C59.221 124.428 58.9539 123.66 58.7092 122.786L57.7467 118.618C57.1808 115.854 56.7458 114.022 56.4329 113.126C55.9062 111.829 55.1718 111.182 54.2174 111.182H53.1165V125.107H49.6028V100.226C49.6028 97.5084 49.545 94.8301 49.3386 92.1167C46.3114 52.7145 26.1585 66.8768 19.4185 89.3929C18.6476 91.9664 18.5327 94.1681 18.5327 96.8627V108.197H25.8523V94.9735H29.3661V125.107H25.8523V111.159H18.5327V125.107H15.019V96.8083C15.019 95.2039 15.0264 93.5238 14.9267 91.9288C14.7894 89.7884 14.3503 88.0115 15.4064 84.818C16.4671 81.6162 18.0475 78.5861 20.2777 76.9672C26.7841 72.246 29.1115 51.5146 16.3202 64.2112C11.1592 69.3336 7.33351 77.6811 13.05 77.233C19.6932 76.7153 10.878 92.1839 11.4269 99.3086C11.5472 100.086 11.6188 101.008 11.6419 102.079ZM40.9168 94.7777L47.4563 125.107H44.0954L41.9941 115.281H36.8456L34.6991 125.107H31.4981L38.0756 94.7777H40.9168ZM41.3685 112.41L39.9549 105.35C39.6877 103.947 39.5037 102.411 39.3969 100.737C39.3208 101.529 39.2822 102.049 39.2672 102.305C39.1599 103.511 39.023 104.52 38.8621 105.35L37.4491 112.41H41.3685ZM53.1165 108.287H54.2174C55.05 108.287 55.7146 107.987 56.2115 107.384C56.5859 106.924 56.8455 106.322 56.9978 105.576C57.1437 104.822 57.2189 103.76 57.2189 102.395C57.2189 101.024 57.1127 100.052 56.9062 99.4792C56.6084 98.6511 56.1111 98.1383 55.4239 97.9352C55.2023 97.8743 54.7978 97.8447 54.2174 97.8447H53.1165V108.287ZM77.1347 110.315H78.2351C79.3658 110.315 80.1453 109.999 80.5654 109.366C81.1453 108.484 81.4356 106.804 81.4356 104.332C81.4356 101.348 80.9844 99.412 80.0916 98.5305C79.6861 98.1305 79.0681 97.9352 78.2351 97.9352H77.1347V110.315ZM104.621 94.9735V125.107H101.107V94.9735H104.621Z" fill="#F9F4F0"/>
<path d="M11.1231 196.692H9.35665C9.30451 195.857 9.16817 195.243 8.95914 194.847C8.65789 194.313 8.18469 194.047 7.53404 194.047C6.46986 194.047 5.75154 194.776 5.38211 196.229C5.04476 197.52 4.87634 199.215 4.87634 201.322C4.87634 203.484 5.08888 205.06 5.51044 206.042C5.70744 206.489 5.98013 206.842 6.3295 207.103C6.67889 207.361 7.05634 207.492 7.46588 207.492C8.59373 207.492 9.22431 206.454 9.35665 204.383H11.1231C11.0188 207.459 9.75014 209 7.31349 209C5.87586 209 4.82821 208.477 4.16153 207.436C3.74398 206.798 3.43871 205.963 3.24221 204.921C3.04522 203.884 2.94897 202.597 2.94897 201.064C2.94897 199.116 3.07328 197.603 3.32643 196.53C3.64774 195.176 4.14549 194.174 4.82421 193.521C5.50242 192.867 6.37762 192.538 7.45384 192.538C8.99122 192.538 10.0594 193.172 10.6655 194.443C10.9547 195.061 11.1071 195.809 11.1231 196.692ZM14.5799 192.851V199.801H18.426V192.851H20.2727V208.688H18.426V201.357H14.5799V208.688H12.7327V192.851H14.5799ZM27.4513 192.851V194.408H24.368V199.789H27.4513V201.345H24.368V207.131H27.6524V208.688H22.5209V192.851H27.4513ZM31.109 201.369V208.688H29.2619V192.851H31.687C32.8395 192.851 33.626 193.018 34.0515 193.35C34.449 193.651 34.7383 194.067 34.9106 194.594C35.0991 195.148 35.1919 195.94 35.1919 196.958C35.1919 198.399 34.9387 199.433 34.437 200.058C34.1878 200.375 33.8024 200.617 33.285 200.787C33.7307 200.914 34.0796 201.175 34.3327 201.579C34.5572 201.979 34.7342 202.423 34.8625 202.91C34.9548 203.282 35.055 203.733 35.1678 204.268L35.5653 206.24C35.6695 206.818 35.9262 207.634 36.3437 208.688H34.473C34.3166 208.331 34.1764 207.927 34.0475 207.468L33.5417 205.278C33.2445 203.824 33.0159 202.862 32.8514 202.391C32.5742 201.71 32.1887 201.369 31.687 201.369H31.109ZM31.109 199.849H31.687C32.1246 199.849 32.4735 199.69 32.7346 199.374C32.9312 199.132 33.068 198.815 33.1482 198.423C33.2244 198.027 33.2645 197.468 33.2645 196.752C33.2645 196.031 33.2084 195.52 33.1001 195.219C32.9437 194.784 32.6825 194.514 32.3212 194.408C32.2048 194.376 31.9923 194.36 31.687 194.36H31.109V199.849ZM45.0963 192.851V208.688H43.1651L39.7324 198.526C39.6601 198.276 39.4958 197.623 39.2346 196.562C39.2667 197.16 39.2947 197.813 39.3193 198.526V208.688H37.4721V192.851H39.4837L42.9805 203.397C43.0407 203.606 43.1013 203.841 43.157 204.106C43.193 204.351 43.2537 204.64 43.3339 204.965C43.2853 204.537 43.2577 204.066 43.2498 203.547V192.851H45.0963ZM54.278 192.851L51.291 201.948C51.2067 202.224 51.1627 202.569 51.1627 202.981V208.688H49.316V202.981C49.316 202.593 49.2634 202.249 49.1632 201.948L46.2122 192.851H48.0588L49.5968 197.607C49.9823 198.922 50.2108 199.916 50.2795 200.589C50.3997 199.567 50.6087 198.574 50.9135 197.607L52.4675 192.851H54.278ZM57.4094 192.851V208.688H55.5628V192.851H57.4094ZM71.8469 196.692H70.0805C70.0283 195.857 69.892 195.243 69.6829 194.847C69.3816 194.313 68.9085 194.047 68.2578 194.047C67.1941 194.047 66.4754 194.776 66.1059 196.229C65.7686 197.52 65.6002 199.215 65.6002 201.322C65.6002 203.484 65.8127 205.06 66.2342 206.042C66.4312 206.489 66.7039 206.842 67.0533 207.103C67.4026 207.361 67.7802 207.492 68.1896 207.492C69.3175 207.492 69.9481 206.454 70.0805 204.383H71.8469C71.7427 207.459 70.4739 209 68.0373 209C66.5997 209 65.5521 208.477 64.8853 207.436C64.4677 206.798 64.163 205.963 63.966 204.921C63.769 203.884 63.6728 202.597 63.6728 201.064C63.6728 199.116 63.7971 197.603 64.0502 196.53C64.3715 195.176 64.8693 194.174 65.548 193.521C66.2262 192.867 67.1015 192.538 68.1776 192.538C69.715 192.538 70.7832 193.172 71.3893 194.443C71.6785 195.061 71.8308 195.809 71.8469 196.692ZM75.3037 192.851V199.801H79.1498V192.851H80.9965V208.688H79.1498V201.357H75.3037V208.688H73.4564V192.851H75.3037ZM85.2443 192.851V208.688H83.3976V192.851H85.2443ZM94.045 192.851V194.36L88.7777 207.179H94.045V208.688H87.0107V207.179L92.2825 194.36H87.2117V192.851H94.045ZM97.5017 192.851V199.801H101.348V192.851H103.195V208.688H101.348V201.357H97.5017V208.688H95.6546V192.851H97.5017Z" fill="#F9F4F0"/>
<path d="M27.841 145.32H22.0118C21.8399 142.563 21.3897 140.538 20.7005 139.231C19.707 137.467 18.1435 136.591 15.9975 136.591C12.4867 136.591 10.1153 138.996 8.89668 143.791C7.78388 148.051 7.22746 153.644 7.22746 160.596C7.22746 167.73 7.92974 172.931 9.32075 176.172C9.96989 177.648 10.8707 178.811 12.0231 179.674C13.1754 180.523 14.4211 180.954 15.7726 180.954C19.4949 180.954 21.5746 177.53 22.0118 170.696H27.841C27.4967 180.849 23.3101 185.933 15.2688 185.933C10.5258 185.933 7.06856 184.208 4.86951 180.771C3.49153 178.668 2.48449 175.91 1.83536 172.474C1.18622 169.05 0.868408 164.803 0.868408 159.746C0.868408 153.317 1.27896 148.326 2.11406 144.785C3.17324 140.316 4.81639 137.01 7.05504 134.854C9.29419 132.697 12.182 131.613 15.7324 131.613C20.8062 131.613 24.3307 133.704 26.3307 137.898C27.2847 139.937 27.7878 142.406 27.841 145.32ZM39.2473 132.645V179.765H49.9649V184.9H33.1534V132.645H39.2473ZM76.9771 132.645V166.371C76.9771 170.435 76.9109 173.375 76.7786 175.217C76.4738 179.099 75.2813 181.882 73.215 183.594C71.3203 185.148 68.6576 185.933 65.2129 185.933C59.3441 185.933 55.6748 183.711 54.191 179.268C53.5945 177.439 53.3033 173.14 53.3033 166.371V132.645H59.3972V166.371C59.4238 170.475 59.4769 173.062 59.5561 174.107C59.7286 176.733 60.3115 178.524 61.305 179.504C62.2589 180.471 63.5307 180.954 65.1467 180.954C67.7568 180.954 69.4526 179.765 70.221 177.4C70.6049 176.224 70.83 172.552 70.8831 166.371V132.645H76.9771ZM84.3958 132.645H93.0863C100.227 132.645 103.804 136.853 103.804 145.281C103.804 151.566 101.976 155.578 98.3325 157.342C100.094 158.061 101.406 158.962 102.294 160.06C104.281 162.49 105.274 165.94 105.274 170.435C105.274 174.264 104.586 177.413 103.221 179.883C101.896 182.261 100.055 183.776 97.6704 184.443C96.557 184.744 95.1926 184.9 93.5895 184.9H84.3958V132.645ZM90.4896 155.16H92.583C95.8287 155.16 97.4453 152.259 97.4453 146.47C97.4453 142.354 96.8753 139.74 95.7359 138.617C95.0603 137.951 94.0006 137.624 92.5433 137.624H90.4896V155.16ZM90.4896 179.922H92.6627C94.5038 179.922 95.8818 179.425 96.8222 178.432C98.2132 176.904 98.9155 174.186 98.9155 170.278C98.9155 163.653 96.8358 160.334 92.6627 160.334H90.4896V179.922Z" fill="#F9F4F0"/>
</svg>
