<svg width="65" height="120" viewBox="0 0 65 120" fill="none" xmlns="http://www.w3.org/2000/svg">
<g clip-path="url(#clip0_1_121)">
<path d="M19.3284 16.7028C21.7676 17.1148 21.7292 16.1346 20.7104 15.1529C19.8119 14.2854 18.1468 13.4498 16.7804 13.0891C13.5182 12.2274 11.4321 13.1057 12.4429 15.0148C12.6469 15.4001 12.9351 15.7999 13.2652 16.1548C13.451 16.131 13.6374 16.1122 13.8249 16.097C13.7609 16.0153 13.7023 15.9322 13.6518 15.8498C13.2588 15.2057 13.3766 14.6021 13.8348 14.1958C14.4196 13.6775 15.3919 13.5365 16.7509 13.9139C17.4385 14.1047 18.6561 14.6339 18.4812 15.0929C18.3984 15.3105 17.9601 15.4334 17.4864 15.2339C16.7694 14.9324 16.2335 14.7517 15.8568 14.6635C13.9348 14.2139 16.1222 16.1606 19.3284 16.7028ZM7.20404 58.5218H5.26915C5.26079 57.6484 5.20366 57.0244 5.10267 56.6457C4.93965 56.0561 4.63208 55.7633 4.17447 55.7633C3.75264 55.7633 3.44882 55.9525 3.26012 56.3314C3.11499 56.633 3.04026 57.1791 3.04026 57.9709C3.04026 59.0211 3.17183 59.8298 3.44016 60.4024C3.64733 60.8331 4.1084 61.4179 4.83405 62.1668C5.72677 63.0752 6.31623 63.7981 6.59726 64.3358C7.01072 65.1276 7.21759 66.2639 7.21759 67.7528C7.21759 69.2811 6.96657 70.3524 6.46972 70.9677C6.20139 71.2862 5.8364 71.5401 5.3661 71.7293C4.89983 71.9188 4.39462 72.0137 3.85363 72.0137C2.17842 72.0137 1.13568 71.2046 0.72279 69.5821C0.595548 69.0783 0.520242 68.2264 0.50293 67.0342H2.43752C2.45512 68.2606 2.53418 69.0741 2.6796 69.4787C2.89484 70.0771 3.26445 70.3739 3.79188 70.3739C4.30633 70.3739 4.64939 70.1804 4.82078 69.7927C5.01005 69.3842 5.10671 68.7211 5.10671 67.8135C5.10671 66.7713 5.01438 65.9928 4.83405 65.4678C4.65372 64.9731 4.27574 64.4264 3.69984 63.8323C2.61814 62.705 2.00675 62.0462 1.87027 61.8528C1.4923 61.3149 1.23262 60.7597 1.09673 60.1873C0.98622 59.6926 0.929375 59.0942 0.929375 58.3973C0.929375 58.05 0.946112 57.7252 0.976699 57.4203C0.926206 56.0719 0.717308 54.7035 0.972083 53.5593C1.57626 50.8468 3.2229 49.0567 3.19232 45.2996C3.16346 41.7784 2.28345 36.8418 1.66628 32.8833C0.403099 26.9527 2.53937 24.8866 4.66699 22.5568C6.48271 20.5681 6.12234 19.5813 7.9753 18.2281C8.22599 18.0452 8.48393 17.8724 8.7488 17.7127C6.89819 14.258 12.0026 9.48544 19.1316 13.1866C22.057 14.3693 23.4529 16.8127 21.8478 18.3387C23.9307 19.4859 25.7839 19.4809 27.5979 20.0187C29.2341 18.8989 31.032 19.4686 31.586 19.77C32.4761 17.7069 34.4704 18.1977 34.5826 18.2729C34.6568 16.7628 36.5836 17.0201 36.907 17.2124C36.5631 15.8115 38.0574 14.8775 38.8471 14.9801C38.4798 13.6999 39.4181 12.7731 40.3621 12.8071C39.816 11.7437 40.5837 10.9421 41.731 10.5148C41.1042 9.63651 42.5865 8.88977 43.6641 8.27242C43.1223 8.10833 42.8995 6.59748 46.0067 4.38254C46.9588 3.70374 48.0613 2.25797 48.8464 1.28278C49.1015 0.864952 49.3389 0.600365 49.5816 0.439163C49.6967 0.332901 49.7809 0.285919 49.8303 0.309769C50.5297 0.0401306 51.3275 0.47242 52.7208 0.544708C53.1057 0.564232 53.0569 0.227364 53.7609 0.815071C54.8241 1.70351 57.0891 1.71724 57.7602 2.89845C60.0936 7.0023 65.3133 3.12037 64.9527 8.30206C64.8122 9.17242 64.6844 9.95097 64.6287 10.6543C64.3615 14.0317 64.3958 15.5541 62.0302 16.3102C60.8273 16.6948 59.6155 16.4527 58.5118 16.1613C57.8119 15.9763 56.8632 15.8751 56.178 15.8057C55.7327 15.7601 55.3576 16.016 54.8851 16.6746C53.9182 18.0213 53.2592 20.5457 52.8498 21.3849C52.4354 22.1548 52 22.7866 51.8993 23.6722C51.8018 24.531 52.0332 25.6442 51.9392 26.5146C51.6905 28.8105 52.1645 30.9994 51.6982 33.1507C50.9033 36.818 49.1868 37.6507 49.1505 41.37C49.1063 45.8664 50.4247 50.2868 56.5268 54.4637H56.5507V56.1552H53.1729V62.0039H56.5507V63.6947H53.1729V69.9825H56.7703V71.6736H51.1503V54.9127C51.1503 54.3635 51.2137 53.6663 51.0386 53.1495C50.6982 52.1514 49.9838 52.506 49.6557 53.5666C49.5045 54.0546 49.4223 54.7645 49.3825 55.5317C49.3078 56.9713 49.4884 58.3538 49.4884 59.7826C49.4884 61.4052 49.2595 62.5932 48.8069 63.3503C48.3848 64.0389 47.8305 64.5082 47.145 64.7621C46.8019 64.8867 46.3399 64.9513 45.7637 64.9513H44.9019V71.6736H42.879V54.9582L42.8715 54.9591C42.2313 44.4886 36.9789 44.4228 35.8752 53.1894C35.7027 54.5592 35.4436 56.1479 35.5175 57.9446L35.5169 57.9429C35.538 58.2462 35.5495 58.5735 35.5495 58.9265C35.5495 60.4931 35.2725 61.6159 34.7229 62.2964C34.4496 62.6404 34.0278 62.9029 33.4605 63.0882C33.9487 63.2254 34.3316 63.5098 34.6086 63.9486C34.8547 64.3832 35.048 64.8652 35.1885 65.3947C35.2901 65.799 35.3998 66.2895 35.523 66.8709L35.9586 69.0142C36.0723 69.6425 36.3542 70.5286 36.8112 71.6736H34.7624C34.5907 71.2862 34.4369 70.8474 34.2961 70.3482L33.7421 67.968C33.4164 66.3889 33.166 65.343 32.9859 64.831C32.6827 64.0906 32.26 63.7207 31.7106 63.7207H31.077V71.6736H29.0544V57.4637C29.0544 55.9115 29.0212 54.3818 28.9023 52.8322C27.1599 30.3286 15.5598 38.417 11.6803 51.2765C11.2365 52.7463 11.1704 54.0038 11.1704 55.5427V62.0163H15.3836V54.4637H17.4061V71.6736H15.3836V63.7074H11.1704V71.6736H9.14789V55.5116C9.14789 54.5953 9.15217 53.6358 9.09478 52.7248C9.01574 51.5024 8.76298 50.4876 9.37088 48.6637C9.98144 46.8351 10.8911 45.1045 12.1748 44.1799C15.9199 41.4835 17.2596 29.6433 9.89686 36.8946C6.92618 39.8201 4.72412 44.5876 8.01452 44.3317C11.8384 44.036 6.76431 52.8706 7.08026 56.9396C7.1495 57.3839 7.19077 57.9105 7.20404 58.5218ZM24.0547 54.3519L27.8189 71.6736H25.8843L24.6748 66.0617H21.7113L20.4758 71.6736H18.6333L22.4193 54.3519H24.0547ZM24.3147 64.4222L23.5011 60.3901C23.3473 59.589 23.2414 58.7113 23.1799 57.7557C23.1361 58.2078 23.1139 58.5046 23.1052 58.6509C23.0435 59.3396 22.9647 59.9162 22.872 60.3901L22.0587 64.4222H24.3147ZM31.077 62.0677H31.7106C32.1899 62.0677 32.5724 61.896 32.8584 61.5518C33.0739 61.2891 33.2234 60.9452 33.311 60.5188C33.395 60.0882 33.4383 59.4819 33.4383 58.7023C33.4383 57.9195 33.3772 57.3641 33.2583 57.0371C33.0869 56.5641 32.8006 56.2713 32.4051 56.1552C32.2775 56.1205 32.0447 56.1035 31.7106 56.1035H31.077V62.0677ZM44.9019 63.2254H45.5353C46.1861 63.2254 46.6348 63.045 46.8766 62.6835C47.2104 62.18 47.3775 61.2202 47.3775 59.8084C47.3775 58.1044 47.1178 56.9987 46.6039 56.4952C46.3705 56.2668 46.0148 56.1552 45.5353 56.1552H44.9019V63.2254ZM60.7232 54.4637V71.6736H58.7006V54.4637H60.7232Z" fill="#396448"/>
<path d="M6.90574 112.559H5.88896C5.85895 112.082 5.78047 111.731 5.66015 111.505C5.48675 111.2 5.21438 111.048 4.83986 111.048C4.22732 111.048 3.81385 111.464 3.6012 112.294C3.40702 113.031 3.31008 113.999 3.31008 115.203C3.31008 116.437 3.43242 117.338 3.67507 117.898C3.78846 118.154 3.94542 118.356 4.14653 118.505C4.34763 118.652 4.5649 118.726 4.80062 118.726C5.44982 118.726 5.81279 118.134 5.88896 116.951H6.90574C6.84572 118.708 6.11546 119.588 4.71291 119.588C3.88541 119.588 3.28238 119.289 2.89864 118.694C2.65829 118.33 2.48258 117.853 2.36947 117.259C2.25608 116.666 2.20068 115.931 2.20068 115.055C2.20068 113.943 2.27224 113.079 2.41795 112.466C2.60289 111.693 2.8894 111.12 3.28008 110.747C3.67045 110.374 4.17422 110.186 4.7937 110.186C5.67862 110.186 6.29348 110.548 6.64231 111.274C6.80879 111.627 6.89651 112.054 6.90574 112.559ZM8.89546 110.365V114.334H11.1093V110.365H12.1723V119.409H11.1093V115.223H8.89546V119.409H7.8322V110.365H8.89546ZM16.3043 110.365V111.254H14.5296V114.327H16.3043V115.216H14.5296V118.52H16.42V119.409H13.4664V110.365H16.3043ZM18.4097 115.23V119.409H17.3465V110.365H18.7424C19.4057 110.365 19.8585 110.46 20.1034 110.65C20.3322 110.822 20.4987 111.059 20.5979 111.36C20.7064 111.677 20.7598 112.129 20.7598 112.71C20.7598 113.533 20.6141 114.124 20.3253 114.481C20.1818 114.662 19.96 114.8 19.6622 114.897C19.9187 114.97 20.1196 115.119 20.2652 115.35C20.3945 115.578 20.4963 115.831 20.5702 116.11C20.6233 116.322 20.681 116.58 20.7459 116.886L20.9748 118.012C21.0347 118.342 21.1825 118.808 21.4228 119.409H20.346C20.256 119.206 20.1753 118.975 20.1011 118.713L19.8099 117.462C19.6389 116.632 19.5073 116.082 19.4126 115.813C19.2531 115.424 19.0312 115.23 18.7424 115.23H18.4097ZM18.4097 114.361H18.7424C18.9942 114.361 19.1951 114.271 19.3454 114.09C19.4586 113.952 19.5373 113.771 19.5835 113.547C19.6273 113.321 19.6504 113.002 19.6504 112.593C19.6504 112.181 19.6181 111.889 19.5558 111.717C19.4657 111.469 19.3154 111.315 19.1074 111.254C19.0404 111.236 18.9181 111.227 18.7424 111.227H18.4097V114.361ZM26.4608 110.365V119.409H25.3492L23.3733 113.606C23.3317 113.463 23.2371 113.09 23.0868 112.484C23.1053 112.826 23.1214 113.199 23.1356 113.606V119.409H22.0723V110.365H23.2302L25.243 116.388C25.2776 116.507 25.3125 116.641 25.3445 116.793C25.3653 116.933 25.4002 117.098 25.4464 117.283C25.4184 117.039 25.4025 116.77 25.3979 116.474V110.365H26.4608ZM31.7458 110.365L30.0265 115.56C29.978 115.718 29.9527 115.915 29.9527 116.15V119.409H28.8897V116.15C28.8897 115.929 28.8594 115.732 28.8017 115.56L27.1031 110.365H28.166L29.0513 113.081C29.2732 113.832 29.4047 114.4 29.4443 114.784C29.5135 114.201 29.6338 113.633 29.8092 113.081L30.7037 110.365H31.7458ZM33.5483 110.365V119.409H32.4854V110.365H33.5483ZM41.8585 112.559H40.8418C40.8117 112.082 40.7333 111.731 40.6129 111.505C40.4395 111.2 40.1672 111.048 39.7926 111.048C39.1804 111.048 38.7667 111.464 38.554 112.294C38.3598 113.031 38.2629 113.999 38.2629 115.203C38.2629 116.437 38.3852 117.338 38.6279 117.898C38.7412 118.154 38.8982 118.356 39.0993 118.505C39.3004 118.652 39.5177 118.726 39.7534 118.726C40.4026 118.726 40.7656 118.134 40.8418 116.951H41.8585C41.7985 118.708 41.0682 119.588 39.6657 119.588C38.8382 119.588 38.2352 119.289 37.8514 118.694C37.6111 118.33 37.4356 117.853 37.3223 117.259C37.2089 116.666 37.1535 115.931 37.1535 115.055C37.1535 113.943 37.225 113.079 37.3707 112.466C37.5557 111.693 37.8422 111.12 38.2328 110.747C38.6232 110.374 39.127 110.186 39.7465 110.186C40.6314 110.186 41.2463 110.548 41.5951 111.274C41.7616 111.627 41.8493 112.054 41.8585 112.559ZM43.8483 110.365V114.334H46.0621V110.365H47.1251V119.409H46.0621V115.223H43.8483V119.409H42.785V110.365H43.8483ZM49.5701 110.365V119.409H48.5071V110.365H49.5701ZM54.6358 110.365V111.227L51.6039 118.548H54.6358V119.409H50.5868V118.548L53.6213 111.227H50.7026V110.365H54.6358ZM56.6255 110.365V114.334H58.8394V110.365H59.9023V119.409H58.8394V115.223H56.6255V119.409H55.5623V110.365H56.6255Z" fill="#396448"/>
<path d="M16.5288 83.2191H13.1735C13.0745 81.6446 12.8154 80.488 12.4187 79.7417C11.8468 78.7341 10.9469 78.234 9.71167 78.234C7.69084 78.234 6.32581 79.6072 5.62439 82.346C4.98386 84.779 4.66359 87.9733 4.66359 91.9436C4.66359 96.0183 5.06782 98.9884 5.86849 100.839C6.24213 101.683 6.76062 102.347 7.42397 102.839C8.08726 103.324 8.80426 103.571 9.58219 103.571C11.7248 103.571 12.9219 101.615 13.1735 97.7123H16.5288C16.3306 103.511 13.9208 106.414 9.2922 106.414C6.56211 106.414 4.57212 105.429 3.30634 103.466C2.51317 102.265 1.93352 100.69 1.55987 98.7274C1.18623 96.772 1.0033 94.3466 1.0033 91.4584C1.0033 87.7867 1.23961 84.9357 1.7203 82.9134C2.32996 80.3612 3.27576 78.4729 4.56434 77.2415C5.8532 76.01 7.51541 75.3907 9.55907 75.3907C12.4796 75.3907 14.5082 76.5847 15.6595 78.9803C16.2086 80.1446 16.4982 81.5551 16.5288 83.2191ZM23.0943 75.9801V102.892H29.2634V105.824H19.5867V75.9801H23.0943ZM44.8117 75.9801V95.2421C44.8117 97.5629 44.7736 99.2423 44.6974 100.294C44.522 102.511 43.8356 104.101 42.6462 105.078C41.5556 105.966 40.023 106.414 38.0402 106.414C34.6621 106.414 32.55 105.145 31.6959 102.608C31.3526 101.563 31.1849 99.1078 31.1849 95.2421V75.9801H34.6927V95.2421C34.7079 97.5855 34.7385 99.0632 34.7841 99.6602C34.8834 101.16 35.2189 102.183 35.7908 102.742C36.3398 103.295 37.0719 103.571 38.002 103.571C39.5044 103.571 40.4805 102.892 40.9228 101.541C41.1438 100.869 41.2734 98.7721 41.304 95.2421V75.9801H44.8117ZM49.0819 75.9801H54.0842C58.1945 75.9801 60.2532 78.3831 60.2532 83.1969C60.2532 86.7865 59.2009 89.0777 57.1039 90.0852C58.1181 90.4958 58.8732 91.0105 59.3839 91.6374C60.5279 93.0256 61.0997 94.9958 61.0997 97.5629C61.0997 99.7497 60.7033 101.548 59.9179 102.959C59.1553 104.317 58.0953 105.183 56.7228 105.563C56.0819 105.735 55.2966 105.824 54.3738 105.824H49.0819V75.9801ZM52.5895 88.8388H53.7945C55.6627 88.8388 56.5932 87.1821 56.5932 83.876C56.5932 81.5252 56.2651 80.0325 55.6093 79.3909C55.2204 79.0103 54.6104 78.8237 53.7716 78.8237H52.5895V88.8388ZM52.5895 102.981H53.8403C54.9001 102.981 55.6933 102.697 56.2345 102.13C57.0352 101.257 57.4395 99.7051 57.4395 97.4734C57.4395 93.6898 56.2424 91.7942 53.8403 91.7942H52.5895V102.981Z" fill="#396448"/>
</g>
<defs>
<clipPath id="clip0_1_121">
<rect width="65" height="120" fill="white"/>
</clipPath>
</defs>
</svg>
